
<svg xmlns="http://www.w3.org/2000/svg" version="1.1" xmlns:xlink="http://www.w3.org/1999/xlink" preserveAspectRatio="none" x="0px" y="0px" width="3000px" height="3000px" viewBox="0 0 3000 3000">
<defs>
<radialGradient id="Gradient_1" gradientUnits="userSpaceOnUse" cx="0" cy="0" r="85.9" fx="0" fy="0" gradientTransform="matrix( 1, 0, 0, 1, 8.85,18.65) " spreadMethod="pad">
<stop  offset="0%" stop-color="#FA38AD"/>

<stop  offset="100%" stop-color="#FDACDD"/>
</radialGradient>

<g id="head_copy_7_Layer2_0_FILL">
<path fill="#000000" stroke="none" d="
M -38.95 7.65
Q -38.25 10.65 -37.7 13.85 -37.55 13.7 -37.15 13.7 -37.35 11.2 -37.9 8.9 -41.6671875 -12.578125 -59.8 -15.3 -43.9552734375 -12.2236328125 -38.95 7.65
M -81.7 -13.4
L -81.7 -13.25
Q -80.15 -13.75 -78.55 -14.2 -80.15 -13.9 -81.7 -13.4
M 30.25 -11.85
Q 32.55 -12.3 35.2 -12.2 32.9 -12.45 30.8 -12.15 13 -10.95 8.6 8.6 7.7 11.75 7.35 15.45 8.05 15.6 8.95 16 9.15 16 9.3 16 10.2 10.05 11.75 5.55 17.05 -9.6 30.25 -11.85 Z"/>

<path fill="#017373" stroke="none" d="
M -81.7 -13.25
Q -82.4 -13.1 -83.1 -12.95 -83.1 -12.6 -83.1 -12.25 -79.05 32.75 -38.95 19.8 -38.05 19.45 -37.15 19.15 -37.35 16.3 -37.7 13.85 -38.25 10.65 -38.95 7.65 -43.9552734375 -12.2236328125 -59.8 -15.3 -60.1947265625 -15.3494140625 -60.6 -15.4 -61.0642578125 -15.5326171875 -61.55 -15.6
L -62 -15.65
Q -69.2 -16.35 -78.55 -14.2 -80.15 -13.75 -81.7 -13.25
M 35.2 -12.2
Q 32.55 -12.3 30.25 -11.85 17.05 -9.6 11.75 5.55 10.2 10.05 9.3 16 8.75 18.45 8.6 21.1 9.3 21.3 10.2 21.7 50.5 37.4 54.35 -7.35 54.35 -7.9 54.35 -8.25 43.45 -12.3 35.2 -12.2 Z"/>

<path fill="#C8FCFC" stroke="none" d="
M -66.7 -123.6
Q -74.1 -124 -79.3 -128.95 -80.3484375 -129.9578125 -81.2 -131.05 -82.778515625 -132.24375 -84.15 -134.2 -86.9224609375 -138.2138671875 -87.35 -143.45 -96.88203125 -129.6013671875 -93 -105.65 -87.35 -71.35 -64.65 -96.65 -57.4859375 -104.762890625 -49.6 -109.85 -52.718359375 -110.687109375 -55.25 -112.7 -56.607421875 -113.5119140625 -57.5 -114.85 -59.070703125 -116.7140625 -59.7 -118.9 -61.0015625 -121.5150390625 -61.75 -123.9 -64.0890625 -123.459765625 -66.7 -123.6
M 46.75 -153.55
L 41.5 -156.15
Q 38.150390625 -157.6453125 34.45 -158.85 35.5658203125 -157.3376953125 36.45 -155.75 43.2419921875 -155.0392578125 48.55 -151.55 53.8646484375 -148.0521484375 55.45 -144.7 57.0763671875 -141.2986328125 50.75 -137.05 44.484375 -132.808984375 40.25 -132.25 40.8787109375 -119.9158203125 34.15 -114.75 27.784375 -109.8021484375 20.85 -110.25 21.333984375 -109.2072265625 21.3 -107.95 21.259765625 -106.50234375 20.6 -105.4 29.69453125 -99.187890625 37.3 -90.15 57 -66.8 65.65 -100.85 74.25 -135.1 51.55 -150.4 49.275 -152.075 46.75 -153.55 Z"/>

<path fill="#8DE4E4" stroke="none" d="
M -45.9 -109.3
Q -47.8396484375 -109.3978515625 -49.6 -109.85 -57.4859375 -104.762890625 -64.65 -96.65 -87.35 -71.35 -93 -105.65 -96.88203125 -129.6013671875 -87.35 -143.45 -87.4171875 -144.553515625 -87.4 -145.7 -87.3513671875 -148.929296875 -86.5 -151.65 -101.1365234375 -140.3484375 -108.65 -119.35 -109 -118.65 -109.2 -118 -108.65 -68.5 -100.4 -33.55 -98.95 -27.9 -97.4 -22.55
L -70.45 -26.1 -60.6 -15.4
Q -60.1947265625 -15.3494140625 -59.8 -15.3 -41.6671875 -12.578125 -37.9 8.9 -21.438671875 18.2990234375 -20.1 -12 -21.35 -15.9 -22.75 -21.6
L -22.75 -103.95
Q -22.8673828125 -103.961328125 -23 -104 -24.9998046875 -102.85546875 -27.4 -103 -31.55 -103.2 -34.45 -107.1 -35.9248046875 -109.1181640625 -36.65 -111.55 -40.5951171875 -108.9904296875 -45.9 -109.3
M 46.75 -153.55
Q 49.275 -152.075 51.55 -150.4 74.25 -135.1 65.65 -100.85 57 -66.8 37.3 -90.15 29.69453125 -99.187890625 20.6 -105.4 20.4458984375 -105.1044921875 20.25 -104.85 19.5560546875 -103.9001953125 18.65 -103.7 18.7166015625 -102.844140625 18.7 -101.95 18.65 -96.55 15.55 -93 12.45 -89.4 8.1 -89.65 6.4740234375 -89.7255859375 5 -90.35 4.4861328125 -87.26484375 2.55 -85 -0.1 -81.85 -3.9 -82.05 -7.185546875 -82.2251953125 -9.55 -84.9
L -9.55 -21.2
Q -10.25 -14.35 -11.1 -10 -5.661328125 13.30703125 8.6 8.6 13 -10.95 30.8 -12.15
L 43.1 -23.9 66.85 -14.35
Q 68.8 -20.8 70.55 -27.8 78.85 -62.25 79.35 -111.7 79.2 -112.4 78.85 -113.1 69.0744140625 -141.395703125 46.75 -153.55 Z"/>

<path fill="#99CC00" stroke="none" d="
M -3.7 -166.25
Q -8.3 -166.75 -12.7 -166.9 -13.75 -167.1 -14.65 -166.95 -15.15 -167.3 -15.85 -167.35 -16.4 -167.35 -17.1 -167.35 -27.3 -167.7 -37.7 -166.6 -48.25 -165.7 -59.2 -163.4 -65.7361328125 -162.2033203125 -71.55 -160 -70.0146484375 -159.171875 -68.7 -157.75 -47.3462890625 -167.3732421875 -12.55 -166.7 -8.15 -166.55 -3.7 -166.25 Z"/>

<path fill="#88A901" stroke="none" d="
M -22.75 -165.8
L -22.75 -152.25
Q -18.816796875 -153.1314453125 -14.4 -152.9 -11.891796875 -152.769140625 -9.55 -152.3
L -9.55 -165.4 -22.75 -165.8 Z"/>

<path fill="#7FC3C3" stroke="none" d="
M 30.8 -12.15
Q 32.9 -12.45 35.2 -12.2 43.45 -12.3 54.35 -8.25 54.35 -7.9 54.35 -7.35 50.5 37.4 10.2 21.7 9.3 21.3 8.6 21.1 8.75 18.45 9.3 16 9.15 16 8.95 16 8.05 15.6 7.35 15.45 7.7 11.75 8.6 8.6 -5.661328125 13.30703125 -11.1 -10 -10.25 -14.35 -9.55 -21.2
L -9.55 -84.9
Q -9.8841796875 -85.27265625 -10.2 -85.7 -12.75 -89.1 -12.7 -93.75 -12.668359375 -95.209765625 -12.4 -96.55 -12.46875 -97.0427734375 -12.55 -97.6 -14.06875 -96.0025390625 -15.8 -96.35 -19.229296875 -96.9828125 -22.75 -103.95
L -22.75 -21.6
Q -21.35 -15.9 -20.1 -12 -21.438671875 18.2990234375 -37.9 8.9 -37.35 11.2 -37.15 13.7 -37.55 13.7 -37.7 13.85 -37.35 16.3 -37.15 19.15 -38.05 19.45 -38.95 19.8 -79.05 32.75 -83.1 -12.25 -83.1 -12.6 -83.1 -12.95 -82.4 -13.1 -81.7 -13.25
L -81.7 -13.4
Q -80.15 -13.9 -78.55 -14.2 -69.2 -16.35 -62 -15.65
L -61.55 -15.6
Q -61.0642578125 -15.5326171875 -60.6 -15.4
L -70.45 -26.1 -97.4 -22.55
Q -76.6 47.8 -19.05 50.3 -16.75 50.4 -14.65 51 -12.7 50.85 -10.75 50.95 45.75 52 66.85 -14.35
L 43.1 -23.9 30.8 -12.15 Z"/>

<path fill="#D3FD2D" stroke="none" d="
M 1.9 -160.65
Q 4.1806640625 -163.3134765625 6.75 -165.05 1.3666015625 -165.8880859375 -3.7 -166.25 -8.15 -166.55 -12.55 -166.7 -47.3462890625 -167.3732421875 -68.7 -157.75 -67.9646484375 -156.962109375 -67.3 -156 -67.1740234375 -155.8158203125 -67.05 -155.65 -66.6548828125 -155.621875 -66.25 -155.6 -58.8 -155.2 -53.6 -150.25 -50.7609375 -147.547265625 -49.5 -144.35 -46.5923828125 -145.06875 -43.3 -144.9 -39.9318359375 -144.7283203125 -37 -143.7 -35.6896484375 -145.2017578125 -34.05 -146.6 -29.0130859375 -150.83828125 -22.75 -152.25
L -22.75 -165.8 -9.55 -165.4 -9.55 -152.3
Q -6.444140625 -151.6705078125 -3.65 -150.45 -1.908984375 -156.1408203125 1.9 -160.65 Z"/>

<path fill="#CC0000" stroke="none" d="
M 34.45 -158.85
Q 34.4306640625 -158.859375 34.4 -158.9 27.85 -167.6 18.3 -168.15 11.9296875 -168.48359375 6.75 -165.05 4.1806640625 -163.3134765625 1.9 -160.65 -1.908984375 -156.1408203125 -3.65 -150.45 -6.444140625 -151.6705078125 -9.55 -152.3 -11.891796875 -152.769140625 -14.4 -152.9 -18.816796875 -153.1314453125 -22.75 -152.25 -29.0130859375 -150.83828125 -34.05 -146.6 -35.6896484375 -145.2017578125 -37 -143.7 -39.9318359375 -144.7283203125 -43.3 -144.9 -46.5923828125 -145.06875 -49.5 -144.35 -50.7609375 -147.547265625 -53.6 -150.25 -58.8 -155.2 -66.25 -155.6 -66.6548828125 -155.621875 -67.05 -155.65 -67.1740234375 -155.8158203125 -67.3 -156 -67.9646484375 -156.962109375 -68.7 -157.75 -70.0146484375 -159.171875 -71.55 -160
L -72.3 -160.4
Q -71.2298828125 -159.8041015625 -77.9 -157.1 -84.6046875 -154.371484375 -86.5 -151.65 -87.3513671875 -148.929296875 -87.4 -145.7 -87.4171875 -144.553515625 -87.35 -143.45 -86.9224609375 -138.2138671875 -84.15 -134.2 -82.778515625 -132.24375 -81.2 -131.05 -80.3484375 -129.9578125 -79.3 -128.95 -74.1 -124 -66.7 -123.6 -64.0890625 -123.459765625 -61.75 -123.9 -61.0015625 -121.5150390625 -59.7 -118.9 -59.070703125 -116.7140625 -57.5 -114.85 -56.607421875 -113.5119140625 -55.25 -112.7 -52.718359375 -110.687109375 -49.6 -109.85 -47.8396484375 -109.3978515625 -45.9 -109.3 -40.5951171875 -108.9904296875 -36.65 -111.55 -35.9248046875 -109.1181640625 -34.45 -107.1 -31.55 -103.2 -27.4 -103 -24.9998046875 -102.85546875 -23 -104 -22.8673828125 -103.961328125 -22.75 -103.95 -19.229296875 -96.9828125 -15.8 -96.35 -14.06875 -96.0025390625 -12.55 -97.6 -12.46875 -97.0427734375 -12.4 -96.55 -12.668359375 -95.209765625 -12.7 -93.75 -12.75 -89.1 -10.2 -85.7 -9.8841796875 -85.27265625 -9.55 -84.9 -7.185546875 -82.2251953125 -3.9 -82.05 -0.1 -81.85 2.55 -85 4.4861328125 -87.26484375 5 -90.35 6.4740234375 -89.7255859375 8.1 -89.65 12.45 -89.4 15.55 -93 18.65 -96.55 18.7 -101.95 18.7166015625 -102.844140625 18.65 -103.7 19.5560546875 -103.9001953125 20.25 -104.85 20.4458984375 -105.1044921875 20.6 -105.4 21.259765625 -106.50234375 21.3 -107.95 21.333984375 -109.2072265625 20.85 -110.25 27.784375 -109.8021484375 34.15 -114.75 40.8787109375 -119.9158203125 40.25 -132.25 44.484375 -132.808984375 50.75 -137.05 57.0763671875 -141.2986328125 55.45 -144.7 53.8646484375 -148.0521484375 48.55 -151.55 43.2419921875 -155.0392578125 36.45 -155.75 35.5658203125 -157.3376953125 34.45 -158.85 Z"/>
</g>

<g id="head_copy_7_Layer1_0_FILL">
<path fill="#000000" stroke="none" d="
M -12.55 14.95
Q -13.95 16.2 -13.95 17.75 -13.95 19.35 -12.55 20.4 -11.1 21.7 -9.2 21.8 -7.25 21.85 -5.85 20.65 -4.45 19.65 -4.45 18.05 -4.45 16.5 -5.85 15.2 -7.25 14.1 -9.2 14.05 -11.1 13.95 -12.55 14.95
M -19.05 19.7
Q -17.65 18.7 -17.65 17.1 -17.65 15.5 -19.05 14.25 -20.45 13.1 -22.4 13.05 -24.3 13 -25.75 14.05 -27.15 15.2 -27.15 16.8 -27.15 18.4 -25.75 19.5 -24.3 20.75 -22.4 20.8 -20.45 20.85 -19.05 19.7
M -81.7 -17.25
Q -81.7 -16.9 -81.7 -16.5 -69.9 13.6 -38.75 11.85 -37.9 11.5 -37.15 11.4 -41.05 -28.6 -81.7 -17.25
M -55.3 -7.5
Q -58.85 -11.35 -60.6 -8.25 -62.35 -5.1 -62.35 -6.95 -62.35 -8.85 -60.25 -11.9 -57.95 -15.2 -54.8 -12.3 -51.6 -9.4 -49.3 -8.45 -47.2 -7.15 -47.2 -5.9 -47.2 -4.6 -49.5 -4.15 -51.8 -3.65 -55.3 -7.5
M 51.9 -11.7
Q 51.9 -12.1 51.9 -12.45 11.25 -26.5 7.35 13.25 8.05 13.4 8.95 13.8 40.1 17.65 51.9 -11.7
M 17.4 -3.4
Q 17.4 -4.7 19.5 -5.75 21.8 -6.6 24.95 -9.3 28.15 -12 30.45 -8.5 32.55 -5.3 32.55 -3.4 32.55 -1.55 30.8 -4.8 29 -8 25.5 -4.4 22 -0.85 19.7 -1.45 17.4 -2.1 17.4 -3.4 Z"/>

<path fill="#FF0000" stroke="none" d="
M -38.75 11.85
Q -69.9 13.6 -81.7 -16.5 -77.85 23.2 -38.75 11.85
M 8.95 13.8
Q 48.05 27.8 51.9 -11.7 40.1 17.65 8.95 13.8 Z"/>

<path fill="#C8FCFC" stroke="none" d="
M -60.6 -8.25
Q -58.85 -11.35 -55.3 -7.5 -51.8 -3.65 -49.5 -4.15 -47.2 -4.6 -47.2 -5.9 -47.2 -7.15 -49.3 -8.45 -51.6 -9.4 -54.8 -12.3 -57.95 -15.2 -60.25 -11.9 -62.35 -8.85 -62.35 -6.95 -62.35 -5.1 -60.6 -8.25
M 19.5 -5.75
Q 17.4 -4.7 17.4 -3.4 17.4 -2.1 19.7 -1.45 22 -0.85 25.5 -4.4 29 -8 30.8 -4.8 32.55 -1.55 32.55 -3.4 32.55 -5.3 30.45 -8.5 28.15 -12 24.95 -9.3 21.8 -6.6 19.5 -5.75 Z"/>
</g>

<g id="brain_0_Layer1_0_FILL">
<path fill="url(#Gradient_1)" stroke="none" d="
M 54.3 -25.15
Q 53.940234375 -38.790625 40.2 -39.65 33.9564453125 -55.0728515625 18.05 -52.1 2.893359375 -66.0568359375 -13.05 -54.25 -22.6251953125 -59.7322265625 -33.65 -55.25 -41.0111328125 -49.2265625 -40.6 -39.4 -57.031640625 -39.735546875 -51.35 -24.4
L -44.55 -31.05 -51.35 -24.4
Q -51.3103515625 -24.377734375 -51.3 -24.35 -60.3833984375 -8.9001953125 -51.45 1.8 -50.5564453125 -3.71640625 -46.1 -4.55 -50.5564453125 -3.71640625 -51.45 1.8 -51.378515625 1.9076171875 -51.3 2 -50.5974609375 13.850390625 -37 10.8 -36.8693359375 10.80234375 -36.75 10.75 -32.53671875 9.2123046875 -32.4 5.7 -32.53671875 9.2123046875 -36.75 10.75 -36.60234375 10.7365234375 -36.45 10.7 -25.3421875 27.440234375 -7.9 23 -7.7400390625 23.1150390625 -7.6 23.2 -12.7943359375 18.4375 -13.3 13.65 -12.7943359375 18.4375 -7.6 23.2 8.272265625 34.367578125 23.4 19.95 18.9185546875 15.9625 19.3 11.95 18.9185546875 15.9625 23.4 19.95 23.5146484375 19.8818359375 23.6 19.8 28.65 23.90546875 33.7 19.4 50.537109375 14.840234375 48.35 1 65.61640625 -6.01796875 54.3 -25.15
M 30.9 -33.9
Q 30.9802734375 -33.8033203125 31.05 -33.7 42.66484375 -33.438671875 45.55 -24.15 47.019921875 -19.528125 46.3 -12.65 47.4189453125 -21.3365234375 53.8 -24.65 47.4189453125 -21.3365234375 46.3 -12.65
L 46.25 -12.4 46.3 -12.65
Q 47.019921875 -19.528125 45.55 -24.15
L 38.85 -17.9
Q 38.7333984375 -8.1189453125 32.95 -4.5 30.38515625 -2.869921875 26.7 -2.15 24.6384765625 4.817578125 30.1 11.75 24.6384765625 4.817578125 26.7 -2.15 26.0134765625 -3.132421875 25.2 -4.15 26.0134765625 -3.132421875 26.7 -2.15 30.38515625 -2.869921875 32.95 -4.5
L 29.95 -11.55
Q 26.411328125 -22.0224609375 30.9 -33.9 21.163671875 -48.1505859375 8.15 -36.95 4.584765625 -34.01328125 3.8 -14.95 4.584765625 -34.01328125 8.15 -36.95 -6.79609375 -49.6931640625 -13.4 -33.7 -12.054296875 -28.126953125 -13 -23.4 -12.7435546875 -16.067578125 -8.4 -18.55 -8.1923828125 -26.7486328125 -3.8 -34.3 -8.1923828125 -26.7486328125 -8.4 -18.55 -8.4376953125 -16.3953125 -8.2 -14.2 -4.4548828125 -2.6625 1.15 0 9.2736328125 -10.3119140625 25 -4.55 9.2736328125 -10.3119140625 1.15 0 -0.3220703125 1.9234375 -1.55 4.35
L -1.55 4.5
Q -1.435546875 4.6447265625 -1.35 4.8 1.7951171875 10.0697265625 0.75 15.35 1.7951171875 10.0697265625 -1.35 4.8 -1.435546875 4.6447265625 -1.55 4.5 -12.6044921875 -2.19921875 -24.3 1.35 -24.043359375 4.2046875 -25.2 7.05 -24.043359375 4.2046875 -24.3 1.35 -24.7720703125 -4.6740234375 -31.8 -10.7 -31.6998046875 -10.825 -31.8 -10.95
L -32.35 -16.3 -36.4 -17.05 -32.35 -16.3 -32.3 -16.3 -32.55 -18.15 -32.6 -23.8
Q -45.96171875 -23.916015625 -40.55 -11.15 -35.2060546875 -8.781640625 -39.05 0.35 -35.2060546875 -8.781640625 -40.55 -11.15 -45.96171875 -23.916015625 -32.6 -23.8 -32.451171875 -23.8029296875 -32.3 -23.8 -30.79609375 -44.6798828125 -13.4 -33.7 -6.79609375 -49.6931640625 8.15 -36.95 21.163671875 -48.1505859375 30.9 -33.9
M 40.15 -39.4
L 35.8 -38.85 40.15 -39.4
M 7.8 -48.15
Q 11.1962890625 -46.9630859375 11.55 -45.1 16.35625 -50.16796875 28.05 -47.75 16.35625 -50.16796875 11.55 -45.1 11.1962890625 -46.9630859375 7.8 -48.15
M 19.15 -6.85
Q 16.59375 -18.6658203125 20.1 -28.6 16.59375 -18.6658203125 19.15 -6.85
M 47.75 -3
L 48.5 -6.8 47.75 -3
Q 44.525 0.2986328125 41.3 0.6 44.525 0.2986328125 47.75 -3
M 15.9 13.85
Q 18.35 10.05 22.15 11.4 18.35 10.05 15.9 13.85
M -8.75 -49.65
L -12.7 -53.8 -8.75 -49.65
Q -12.572265625 -43.6994140625 -20.1 -43.6 -12.572265625 -43.6994140625 -8.75 -49.65
M -38.1 -34.5
L -33.95 -35.45
Q -32.1298828125 -37.844140625 -33.55 -40.75 -32.1298828125 -37.844140625 -33.95 -35.45
L -38.1 -34.5 Z"/>

<path fill="#FB62BE" stroke="none" d="
M -32.35 -16.3
L -31.8 -10.95
Q -31.6998046875 -10.825 -31.8 -10.7 -24.7720703125 -4.6740234375 -24.3 1.35 -12.6044921875 -2.19921875 -1.55 4.5
L -1.55 4.35
Q -0.3220703125 1.9234375 1.15 0 -4.4548828125 -2.6625 -8.2 -14.2 -8.4376953125 -16.3953125 -8.4 -18.55 -12.7435546875 -16.067578125 -13 -23.4 -13.7802734375 -19.4578125 -16.3 -16.1 -13.7802734375 -19.4578125 -13 -23.4 -12.054296875 -28.126953125 -13.4 -33.7 -30.79609375 -44.6798828125 -32.3 -23.8 -32.451171875 -23.8029296875 -32.6 -23.8
L -32.55 -18.15 -32.3 -16.3 -32.35 -16.3
M -25.2 -15.35
Q -23.9900390625 -9.5892578125 -15.95 -5.65 -23.9900390625 -9.5892578125 -25.2 -15.35 -26.4482421875 -23.6984375 -22.95 -29.75 -26.4482421875 -23.6984375 -25.2 -15.35
M 31.05 -33.7
Q 30.9802734375 -33.8033203125 30.9 -33.9 26.411328125 -22.0224609375 29.95 -11.55
L 32.95 -4.5
Q 38.7333984375 -8.1189453125 38.85 -17.9 38.85 -18.09296875 38.85 -18.3 38.85 -18.09296875 38.85 -17.9
L 45.55 -24.15
Q 42.66484375 -33.438671875 31.05 -33.7 Z"/>
</g>

<g id="brain_0_Layer0_0_FILL">
<path fill="#FED6EE" stroke="none" d="
M -6.8 8.15
Q -5.55 9.2 -5.3 7.8 -5.05 6.45 -6.9 5.05 -8.75 3.7 -11.6 3.15 -14.5 2.55 -16.7 3.15 -19 3.7 -19.25 5.1 -19.5 6.5 -16 5.2 -12.55 3.9 -10.35 5.45 -8.05 7.05 -6.8 8.15
M 11.65 -2.9
Q 7.7 -2.1 5.2 -0.35 2.65 1.4 3 3.05 3.35 4.7 7.1 1.55 10.8 -1.6 14.4 -1 18.1 -0.45 20.2 0.1 22.3 0.65 21.95 -1 21.6 -2.65 18.55 -3.2 15.55 -3.75 11.65 -2.9
M 3.55 -34.65
Q 3.25 -36.8 1.15 -38.4 -0.8 -39.9 -3.4 -40 -6.05 -40.1 -7.65 -38.6 -9.3 -37.15 -9 -34.95 -8.7 -32.75 -6.3 -35.7 -3.9 -38.6 -1.5 -36.85 1 -35 2.4 -33.7 3.85 -32.45 3.55 -34.65 Z"/>

<path fill="#FDBDE3" stroke="none" d="
M -15.9 -30
Q -16.2 -32.15 -18.3 -33.75 -20.25 -35.25 -22.85 -35.35 -25.5 -35.45 -27.1 -33.95 -28.75 -32.5 -28.45 -30.3 -28.15 -28.1 -25.75 -31.05 -23.35 -33.95 -20.95 -32.2 -18.45 -30.35 -17.05 -29.05 -15.6 -27.8 -15.9 -30 Z"/>

<path fill="#FA1FA3" stroke="none" d="
M -52.9 -14.15
Q -53.4 -10.6 -52.2 -8.1 -51.05 -5.6 -48.9 -5.7 -46.75 -5.85 -49.25 -9.55 -51.65 -13.25 -49.65 -16.3 -47.6 -19.4 -46.2 -21.15 -44.75 -22.95 -46.9 -22.85 -49 -22.7 -50.75 -20.1 -52.4 -17.65 -52.9 -14.15
M 42.15 11.45
Q 44.25 9.05 44.4 6.5 44.6 4 42.75 2.95 40.85 1.95 41.2 6.05 41.5 10.1 38.35 11.3 35.2 12.6 33.2 13.15 31.1 13.7 33 14.8 34.8 15.8 37.5 14.8 40.1 13.85 42.15 11.45 Z"/>

<path fill="#FDCEEF" stroke="none" d="
M -26.65 -51.6
Q -22.9 -51.5 -20.65 -51.2 -18.35 -50.95 -19.75 -52.75 -21.15 -54.45 -24.25 -54.55 -27.25 -54.7 -30.3 -53.25 -33.45 -51.75 -34.65 -49.4 -35.95 -47.1 -34.55 -45.3 -33.15 -43.55 -31.75 -47.65 -30.25 -51.7 -26.65 -51.6
M 3.1 -54.25
Q 6.65 -53 8.7 -52.05 10.8 -51.15 9.95 -52.95 9.05 -54.7 6.15 -55.75 3.35 -56.8 0.1 -56.7 -3.3 -56.55 -5 -55.15 -6.85 -53.85 -5.95 -52.05 -5.1 -50.25 -2.7 -52.9 -0.25 -55.45 3.1 -54.25 Z"/>

<path fill="#F90698" stroke="none" d="
M 10.75 20.1
Q 6.2 22.75 2.15 20.95 -1.95 19.1 -4.25 17.9 -6.65 16.55 -6.35 18.7 -6.05 20.75 -2.65 22.3 0.6 23.8 5.1 24.05 9.65 24.3 12.8 22.95 15.95 21.65 15.7 19.5 15.4 17.4 10.75 20.1 Z"/>

<path fill="#FDB5E0" stroke="none" d="
M 34.3 -30.85
Q 32.75 -31.2 31.4 -30.95
L 30.65 -27.25
Q 33.55 -29.55 35.5 -27.4 37.6 -25.1 38.65 -23.5 39.85 -22 40 -24.2 40.15 -26.35 38.4 -28.35 36.85 -30.25 34.3 -30.85 Z"/>

<path fill="#FEE7F5" stroke="none" d="
M 25.7 -32.55
Q 27.6 -31.3 27.2 -33.5 26.8 -35.65 24.05 -37.25 21.45 -38.75 18.05 -38.85 14.55 -38.95 12.45 -37.45 10.25 -36 10.65 -33.8 11.05 -31.6 14.2 -34.55 17.4 -37.45 20.55 -35.7 23.85 -33.85 25.7 -32.55 Z"/>
</g>

<path id="head_copy_7_Layer1_0_1_STROKES" stroke="#000000" stroke-width="5" stroke-linejoin="round" stroke-linecap="round" fill="none" d="
M 20.55 -131.7
L 22.35 -147.3 9.85 -162.8
M 29.35 -160.25
Q 65.45 -151.35 78.85 -113.1 79.2 -112.4 79.35 -111.7 78.85 -62.25 70.55 -27.8 51.2 52.2 -10.75 50.95 -12.7 50.85 -14.65 51 -16.75 50.4 -19.05 50.3 -81 47.65 -100.4 -33.55 -108.65 -68.5 -109.2 -118 -109 -118.65 -108.65 -119.35 -95.25 -156.8 -59.2 -163.4 -48.25 -165.7 -37.7 -166.6
L -32.75 -140.75
M -1.95 -89.25
L 21.8 -84.65 41.15 -99.2 65.1 -100.9
M 7.9 -164.85
L 2.95 -139.3
M 70.55 -27.8
L 56.85 -44.8 63.7 -50.2 64.4 -68.35 48.05 -77.65 39.4 -70.35 14.25 -71.15 7.35 -62.05
M 16 -45.75
L 35 -26.65
M 55.6 -13.5
Q 61.1728515625 -27.775 43.1 -42.05
L 48.75 -61.95
M -15.1 -135.25
Q -15.15 -167.3 -14.65 -166.95 -13.75 -167.1 -12.7 -166.9
M -50.4 -134.25
L -52.15 -150 -39.65 -164.75
M -37.15 -63.8
L -44.05 -73.3 -69.2 -74.1 -77.85 -82 -94.2 -73.7 -93.5 -55.55 -86.65 -49.65 -100.4 -33.55
M -85.4 -18.35
Q -87.004296875 -42.0431640625 -72.9 -46.1
L -78.55 -66.3
M -27.85 -90.4
L -51.6 -87.3 -70.95 -103.05 -94.9 -106.3
M -38.55 -47.75
L -70.8 -31.2
M 2.5 29.9
Q -8.45 41.7 -21.1 36.55"/>

<path id="brain_0_Layer1_0_1_STROKES" stroke="#000000" stroke-width="3" stroke-linejoin="round" stroke-linecap="round" fill="none" d="
M 30.9 -33.9
Q 26.411328125 -22.0224609375 29.95 -11.55
M 32.95 -4.475
Q 38.7333984375 -8.1189453125 38.85 -17.9 38.85 -18.09296875 38.85 -18.3
M 40.15 -39.4
L 35.8 -38.85
M 7.8 -48.15
Q 11.1962890625 -46.9630859375 11.55 -45.1 16.35625 -50.16796875 28.05 -47.75
M 25.2 -4.15
Q 26.0134765625 -3.132421875 26.7 -2.125 30.38515625 -2.869921875 32.95 -4.475
M 19.15 -6.85
Q 16.59375 -18.6658203125 20.1 -28.6
M -13.4 -33.7
Q -6.79609375 -49.6931640625 8.15 -36.95 21.163671875 -48.1505859375 30.9 -33.9
M 8.15 -36.95
Q 4.584765625 -34.01328125 3.8 -14.95
M 46.275 -12.375
L 46.3 -12.65
Q 47.019921875 -19.528125 45.575 -24.15
M 41.3 0.6
Q 44.525 0.2986328125 47.75 -3
L 48.5 -6.8
M 53.8 -24.65
Q 47.4189453125 -21.3365234375 46.3 -12.65
M -51.325 -24.4
Q -57.031640625 -39.735546875 -40.6 -39.4 -41.0111328125 -49.2265625 -33.65 -55.25 -22.6251953125 -59.7322265625 -13.05 -54.25 2.893359375 -66.0568359375 18.05 -52.1 33.9564453125 -55.0728515625 40.2 -39.65 53.940234375 -38.790625 54.3 -25.15 65.61640625 -6.01796875 48.35 1 50.537109375 14.840234375 33.7 19.4 28.65 23.90546875 23.6 19.8 23.5146484375 19.8818359375 23.425 19.975 8.272265625 34.367578125 -7.575 23.225 -7.7400390625 23.1150390625 -7.9 23 -25.3421875 27.440234375 -36.45 10.7 -36.60234375 10.7365234375 -36.75 10.775 -36.8693359375 10.80234375 -37 10.825 -50.5974609375 13.850390625 -51.3 2 -51.378515625 1.9076171875 -51.45 1.825 -60.3833984375 -8.9001953125 -51.3 -24.35 -51.3103515625 -24.377734375 -51.325 -24.4
L -44.55 -31.05
M 45.575 -24.15
Q 42.66484375 -33.438671875 31.05 -33.7
M 19.3 11.95
Q 18.9185546875 15.9625 23.425 19.975
M 15.9 13.85
Q 18.35 10.05 22.15 11.4
M 30.1 11.75
Q 24.6384765625 4.817578125 26.7 -2.125
M 25 -4.55
Q 9.2736328125 -10.3119140625 1.15 0.025 -0.3220703125 1.9234375 -1.55 4.35
L -1.525 4.5
Q -1.435546875 4.6447265625 -1.35 4.8 1.7951171875 10.0697265625 0.75 15.35
M -20.1 -43.6
Q -12.572265625 -43.6994140625 -8.75 -49.65
L -12.7 -53.8
M -38.1 -34.5
L -33.95 -35.45
Q -32.1298828125 -37.844140625 -33.55 -40.75
M -32.35 -16.3
L -36.4 -17.05
M -31.775 -10.7
Q -24.7720703125 -4.6740234375 -24.275 1.35 -12.6044921875 -2.19921875 -1.525 4.5
M -13 -23.375
Q -12.054296875 -28.126953125 -13.4 -33.7 -30.79609375 -44.6798828125 -32.3 -23.8 -32.451171875 -23.8029296875 -32.6 -23.8
L -32.55 -18.15 -32.3 -16.3 -32.35 -16.3
M 1.15 0.025
Q -4.4548828125 -2.6625 -8.2 -14.2 -8.4376953125 -16.3953125 -8.375 -18.55
M -16.3 -16.1
Q -13.7802734375 -19.4578125 -13 -23.375
M -22.95 -29.75
Q -26.4482421875 -23.6984375 -25.2 -15.35 -23.9900390625 -9.5892578125 -15.95 -5.65
M -8.375 -18.55
Q -8.1923828125 -26.7486328125 -3.8 -34.3
M -32.6 -23.8
Q -45.96171875 -23.916015625 -40.55 -11.15 -35.2060546875 -8.781640625 -39.05 0.35
M -13.3 13.65
Q -12.7943359375 18.4375 -7.575 23.225
M -24.275 1.35
Q -24.043359375 4.2046875 -25.2 7.05
M -36.75 10.775
Q -32.53671875 9.2123046875 -32.4 5.7
M -51.45 1.825
Q -50.5564453125 -3.71640625 -46.1 -4.55"/>
</defs>

<g transform="matrix( 10.270233154296875, -0.4923858642578125, 0.0894622802734375, 10.27386474609375, 1667.65,2226.15) ">
<g transform="matrix( 1, 0, 0, 1, 0,0) ">
<use xlink:href="#head_copy_7_Layer2_0_FILL"/>
</g>

<g transform="matrix( 1, 0, 0, 1, 0,0) ">
<use xlink:href="#head_copy_7_Layer1_0_FILL"/>

<use xlink:href="#head_copy_7_Layer1_0_1_STROKES"/>
</g>

<g transform="matrix( 1.088836669921875, 0.0430908203125, -0.039886474609375, 1.0074615478515625, -18.6,-139.3) ">
<g transform="matrix( 1, 0, 0, 1, 0,0) ">
<use xlink:href="#brain_0_Layer1_0_FILL"/>

<use xlink:href="#brain_0_Layer1_0_1_STROKES"/>
</g>

<g transform="matrix( 1, 0, 0, 1, 0,0) ">
<use xlink:href="#brain_0_Layer0_0_FILL"/>
</g>
</g>
</g>
</svg>
