<svg width="28" height="30" viewBox="0 0 28 30" fill="none" xmlns="http://www.w3.org/2000/svg">
<path d="M26 7.5H21.5C21.5 3.35786 18.1421 0 14 0C9.85786 0 6.5 3.35786 6.5 7.5H2C1.17157 7.5 0.5 8.17157 0.5 9V27C0.5 28.6569 1.84315 30 3.5 30H24.5C26.1569 30 27.5 28.6569 27.5 27V9C27.5 8.17157 26.8284 7.5 26 7.5ZM9.5 12.75C9.5 13.1642 9.16421 13.5 8.75 13.5H7.25C6.83579 13.5 6.5 13.1642 6.5 12.75V11.25C6.5 10.8358 6.83579 10.5 7.25 10.5H8.75C9.16421 10.5 9.5 10.8358 9.5 11.25V12.75ZM14 3C16.4853 3 18.5 5.01472 18.5 7.5H9.5C9.5 5.01472 11.5147 3 14 3ZM21.5 12.75C21.5 13.1642 21.1642 13.5 20.75 13.5H19.25C18.8358 13.5 18.5 13.1642 18.5 12.75V11.25C18.5 10.8358 18.8358 10.5 19.25 10.5H20.75C21.1642 10.5 21.5 10.8358 21.5 11.25V12.75Z" fill="white"/>
</svg>
