
<svg xmlns="http://www.w3.org/2000/svg" version="1.1" xmlns:xlink="http://www.w3.org/1999/xlink" preserveAspectRatio="none" x="0px" y="0px" width="512px" height="510px" viewBox="0 0 512 510">
<defs>
<radialGradient id="Gradient_1" gradientUnits="userSpaceOnUse" cx="0" cy="0" r="85.9" fx="0" fy="0" gradientTransform="matrix( 1, 0, 0, 1, 8.85,18.65) " spreadMethod="pad">
<stop  offset="0%" stop-color="#FA38AD"/>

<stop  offset="100%" stop-color="#FDACDD"/>
</radialGradient>

<g id="LOGO_0_Layer1_0_FILL">
<path fill="#000000" stroke="none" d="
M 2765.95 777.5
L 2622.7 491.55
Q 2589.45 445.6 2559.95 404.75 2552.65 394.6 2548.95 389.4 2504.7 328.3 2455.3 270.95 2394.75 198.1 2332.85 134.6 2047.65 -139.1 1784.3 -211.7 1520.9 -284.3 1017.5 -311.7 514.15 -339.15 -55.15 54.4 -483.1 350.1 -629.3 873.05 -677.6 1045.7 -695.15 1243.1 -723.9 1346.2 -730.85 1459.45 -753.95 1828.7 -546.5 2305.8 -509.3 2496.45 -452.55 2565.6 -405.1 2623.45 -376.55 2638.85
L -81.25 2916.7
Q -34 2959.8 18.25 2999.3 27.1 3000.45 30.85 3005.6 99.3 3056.5 174.5 3094.35 203.35 3118.7 523.8 3212.7 844.2 3306.6 902.4 3310.05 1483.1 3344.15 1923.8 3090.25 2364.4 2836.35 2492 2711.95 2619.55 2587.5 2715.3 2341.2 2775.3 2142.1 2839.5 1857.35 2848.15 1803.5 2889.75 1538.2 2931.4 1272.8 2857.1 1079.45 2836.35 984.6 2810.4 893.85 2792.55 836.35 2765.95 777.5
M 2771.45 1270.1
Q 2775.3 1308.45 2777.95 1348 2783.1 1410.05 2783.75 1472.3 2783.85 1481.1 2783.85 1489.9 2783.85 1495.75 2783.85 1507.55 2783.85 1554.9 2783.85 1608.05 2772.05 1755.9 2736.6 1903.65 2724.7 1962.75 2707.05 2015.95 2677.5 2098.75 2641.95 2181.5 2579.95 2455.95 2321.05 2660.7 2418.2 2588.4 2411.7 2593.4 2245.85 2719.45 2210.4 2754.9 2135.8 2820.7 2057.2 2876 1923.85 2969.55 1778.95 3032.75 1625.15 3097.75 1459.7 3133.2 1288.25 3164.5 807.8 3116.9 327.25 3069.25 -12.25 2749 -107.65 2702.75 -251.55 2567.55 -395.45 2432.35 -437.95 2175.6 -448.75 2154 -458.35 2131.9 -480.6 2081.3 -497.05 2027.85 -497.05 2021.8 -503 2015.95 -520.65 1956.8 -532.55 1897.75 -568 1708.55 -573.9 1608.05 -579.8 1554.9 -579.8 1501.65 -579.8 1495.75 -579.8 1489.9 -579.8 1324.35 -550.25 1176.6 -582.75 772.25 -256.6 442.35 -246.75 432.2 -161.85 337.05
L -162.6 337.25
Q -161.1 335.9 -159.6 334.55 412.05 -194.9 1125.65 -188.35 1236.6 -187.35 1337.5 -179.55 1894.9 -136.55 2144.05 113.6 2438.4 408.8 2528.25 578.75 2695.2 810.05 2760.15 1176.6 2766.7 1222.3 2771.45 1270.1
M -158.45 333.2
Q -158.75 333.25 -158.95 333.25
L -158.8 333.2
Q -158.6 333.1 -158.35 333.05 -158.4 333.1 -158.45 333.2
M -144.8 332.15
Q -142.85 331.6 -142 331.35 -140.25 330.6 -144.75 331.2
L -144.8 332.15 Z"/>

<path fill="#EEEEEE" stroke="none" d="
M -158.95 333.25
Q -158.75 333.25 -158.45 333.2 -158.4 333.1 -158.35 333.05 -158.6 333.1 -158.8 333.2
L -158.95 333.25
M 262.4 161.6
Q 267.75 160.35 271.6 153.65 320.3 124.7 370.3 101 531.1 27.25 619.2 -0.55 665.25 -17.65 712.75 -29.5 718.05 -30.8 723.25 -32.15 870.7 -69 1009.05 -75.55 1203.95 -141.4 1403.05 -104.6
L 1337.5 -179.55
Q 1236.6 -187.35 1125.65 -188.35 412.05 -194.9 -159.6 334.55 -161.1 335.9 -162.6 337.25
L -161.85 337.05 -144.75 331.2
Q -140.25 330.6 -142 331.35
L 130 252.2
Q 131.2 252.15 132.5 252.2 138.05 249.75 143.95 247.2 199.3 199.7 262.4 161.6 Z"/>

<path fill="#C3C1C1" stroke="none" d="
M 2411.7 2593.4
Q 2418.2 2588.4 2321.05 2660.7
L 2288.4 2472.45
Q 2256.55 2508.3 2227.8 2534 2119.55 2662.4 2043.05 2727
L 2057.2 2876
Q 2135.8 2820.7 2210.4 2754.9 2245.85 2719.45 2411.7 2593.4 Z"/>

<path fill="#8B8A8A" stroke="none" d="
M 218.15 2735.95
Q 257.65 2759.55 406.9 2879.15 556.2 2998.7 825.25 2992.55 906.9 3005.8 987.2 3013.6 1038.5 3017.5 1093.85 3014.9 1233.45 3013.5 1367.75 2991.05 1415.1 2979.25 1457.4 2968.75 1467.9 2966.05 1473.1 2964.75 1536.35 2948.9 1598.1 2927.9 1675.85 2902.85 1746.95 2873.8 1858.9 2823.75 2043.05 2727 -173.6 2609.9 -138.8 473.9 -253.8 666.65 -272.05 754.25 -481.75 1128.2 -417.05 1566.95 -363.65 1929.6 -309.1 2092.1 -297.75 2126.05 -286.25 2151.4 -217.8 2290.85 -125.65 2413.3 15.35 2596.4 218.15 2735.95 Z"/>

<path fill="#ACAAAA" stroke="none" d="
M 406.9 2879.15
Q 257.65 2759.55 218.15 2735.95 15.35 2596.4 -125.65 2413.3 -217.8 2290.85 -286.25 2151.4 -297.75 2126.05 -309.1 2092.1 -363.65 1929.6 -417.05 1566.95 -481.75 1128.2 -272.05 754.25 -253.8 666.65 -138.8 473.9 -170.9 513.25 -163.8 500.6 -161.9 497.3 -139.5 473.6
L -256.6 442.35
Q -582.75 772.25 -550.25 1176.6 -579.8 1324.35 -579.8 1489.9 -579.8 1495.75 -579.8 1501.65 -579.8 1554.9 -573.9 1608.05 -568 1708.55 -532.55 1897.75 -520.65 1956.8 -503 2015.95 -497.05 2021.8 -497.05 2027.85 -480.6 2081.3 -458.35 2131.9 -448.75 2154 -437.95 2175.6 -395.45 2432.35 -251.55 2567.55 -107.65 2702.75 -12.25 2749 327.25 3069.25 807.8 3116.9 1288.25 3164.5 1459.7 3133.2 1625.15 3097.75 1778.95 3032.75 1923.85 2969.55 2057.2 2876
L 2043.05 2727
Q 1858.9 2823.75 1746.95 2873.8 1675.85 2902.85 1598.1 2927.9 1536.35 2948.9 1473.1 2964.75 1467.9 2966.05 1457.4 2968.75 1415.1 2979.25 1367.75 2991.05 1233.45 3013.5 1093.85 3014.9 1038.5 3017.5 987.2 3013.6 906.9 3005.8 825.25 2992.55 556.2 2998.7 406.9 2879.15 Z"/>

<path fill="#DCD6D6" stroke="none" d="
M 126.9 254.65
Q 128.4 253.4 130 252.2
L -142 331.35
Q -142.85 331.6 -144.8 332.15
L -144.75 331.2 -161.85 337.05
Q -246.75 432.2 -256.6 442.35
L -139.5 473.6
Q -108.85 440.95 126.9 254.65 Z"/>

<path fill="#A2A2A2" stroke="none" d="
M 132.5 252.2
Q 131.2 252.15 130 252.2 128.4 253.4 126.9 254.65 -108.85 440.95 -139.5 473.6 -161.9 497.3 -163.8 500.6 -170.9 513.25 -138.8 473.9 -173.6 2609.9 2043.05 2727 2119.55 2662.4 2227.8 2534 2256.55 2508.3 2288.4 2472.45 2596.65 2025.05 2188.9 1114.3 1781.1 203.4 132.5 252.2 Z"/>

<path fill="#BDBCBC" stroke="none" d="
M 271.6 153.65
Q 267.75 160.35 262.4 161.6 199.3 199.7 143.95 247.2 138.05 249.75 132.5 252.2 1781.1 203.4 2188.9 1114.3 2596.65 2025.05 2288.4 2472.45 2402.35 2344.4 2556.6 2088 2723.5 1810.75 2638.3 1306.25 2348.95 622.8 1403.05 -104.6 1203.95 -141.4 1009.05 -75.55 870.7 -69 723.25 -32.15 718.05 -30.8 712.75 -29.5 665.25 -17.65 619.2 -0.55 531.1 27.25 370.3 101 320.3 124.7 271.6 153.65 Z"/>

<path fill="#E5E1E1" stroke="none" d="
M 2783.85 1507.55
Q 2783.85 1495.75 2783.85 1489.9 2783.85 1481.1 2783.75 1472.3
L 2638.3 1306.25
Q 2723.5 1810.75 2556.6 2088 2402.35 2344.4 2288.4 2472.45
L 2321.05 2660.7
Q 2579.95 2455.95 2641.95 2181.5 2677.5 2098.75 2707.05 2015.95 2724.7 1962.75 2736.6 1903.65 2772.05 1755.9 2783.85 1608.05 2783.85 1554.9 2783.85 1507.55 Z"/>

<path fill="#C1BFBF" stroke="none" d="
M 2638.3 1306.25
Q 2638.3 1305.95 2638.25 1305.6 2622.7 1213.3 2598.6 1113.35 2443.15 466.6 1896.6 138.8 1646.75 -59.75 1403.05 -104.6 2348.95 622.8 2638.3 1306.25 Z"/>

<path fill="#FFFFFF" stroke="none" d="
M 2777.95 1348
Q 2775.3 1308.45 2771.45 1270.1 2766.7 1222.3 2760.15 1176.6 2695.2 810.05 2528.25 578.75 2438.4 408.8 2144.05 113.6 1894.9 -136.55 1337.5 -179.55
L 1403.05 -104.6
Q 1646.75 -59.75 1896.6 138.8 2443.15 466.6 2598.6 1113.35 2622.7 1213.3 2638.25 1305.6 2638.3 1305.95 2638.3 1306.25
L 2783.75 1472.3
Q 2783.1 1410.05 2777.95 1348 Z"/>
</g>

<g id="LOGO_0_Layer0_0_FILL">
<path fill="#000000" stroke="none" d="
M 1447.05 2641.4
Q 1433.75 2648.8 1434.1 2664 1434.5 2673.65 1439.3 2678.65 1447.45 2687.4 1459.8 2680.35 1473.1 2672.55 1471.95 2656.6 1470.95 2648.8 1467.55 2644.1 1459.8 2634.75 1447.05 2641.4
M 1512.8 2557.05
Q 1509.55 2556.65 1499.9 2566.55
L 1486.6 2579.3 1485.45 2581 1485.3 2582.55 1485.85 2585.2
Q 1501.85 2646.45 1514 2686.2 1514.95 2690.2 1517.2 2690.8
L 1526.9 2690.4 1534.45 2688.9
Q 1535.8 2687.95 1537.3 2684.3
L 1544.35 2666.5
Q 1546.4 2672.55 1547.35 2685.6 1547.6 2688.9 1549.4 2689.8 1551.15 2690.65 1558.4 2690.2
L 1565.7 2689.4
Q 1567.45 2688.6 1568.85 2686
L 1615.6 2586.95
Q 1617.05 2583.95 1615.4 2582.55
L 1604.9 2579.3
Q 1596.95 2577.2 1594.9 2577.6 1592.75 2577.95 1590.8 2581.9
L 1571.45 2623.3 1579.5 2543.6
Q 1580.25 2537.5 1577.25 2536.8 1574.25 2536.35 1562.2 2540.1
L 1551.35 2544.15
Q 1549.7 2545.35 1548.6 2550.05 1542.25 2577.6 1529.05 2628.3
L 1516.25 2561.45
Q 1515.3 2557.7 1512.8 2557.05
M 1654.85 2541.75
Q 1645.75 2533.8 1637.4 2540.1 1624.4 2550.05 1617.05 2587.35 1609.25 2626.8 1614.8 2658.7 1620.05 2690.85 1636.75 2691.25 1650.15 2691.55 1662.05 2683.05 1674 2674.85 1682.1 2661.6 1690.1 2648.4 1695.75 2632.35 1701.5 2616.35 1703.55 2601.1 1705.65 2586.1 1704.5 2573.6 1703.25 2561.3 1698.6 2555.65 1692.95 2549.15 1686.05 2548.35 1679 2547.55 1673.2 2550.9 1667.45 2554.4 1662.05 2560.6
L 1657.6 2545.55 1654.85 2541.75
M 1661.85 2594.25
Q 1664.8 2593.35 1664.25 2602.2 1663.3 2617.55 1656.8 2630.95 1649.75 2645.25 1644.75 2634.35
L 1643.95 2632.55
Q 1638.15 2616.7 1638.15 2605.05 1638.15 2596.6 1642.95 2600.4 1651.5 2578.5 1660.1 2595.65
L 1661.85 2594.25
M 1933.1 2530.15
Q 1930.3 2527.25 1921.05 2531.45
L 1910.85 2535.4
Q 1909.8 2535.95 1908.65 2536.4 1907.85 2537.1 1907.25 2537.55 1906.65 2538.1 1906.1 2538.8 1905.8 2539.75 1905.7 2540.3
L 1905.3 2544.7
Q 1906.8 2619.6 1909.5 2680.7 1909.7 2685.3 1912.4 2687.75 1915.15 2690.2 1918.15 2690.65
L 1925.95 2691.05
Q 1943.1 2690.65 1957.15 2685.4 1971 2680.35 1980.45 2671.9 1989.8 2663.55 1996 2652.4 2002.35 2641.1 2005 2629.05 2007.75 2617.1 2007.75 2604.4 2007.55 2587.15 2002.6 2572.75 1997.65 2558.4 1988.5 2549.25 1979.35 2540.1 1966.25 2539.4 1953.05 2538.75 1936.4 2549.35 1935.75 2532.95 1933.1 2530.15
M 1938.3 2608.55
Q 1938.1 2601.45 1939.65 2596.4 1941.1 2591.3 1943.1 2588.95 1945.05 2586.55 1948.95 2585.3
L 1955.25 2583.95 1968.4 2584.15
Q 1981.5 2586.1 1986.2 2601 1990.85 2616.35 1983.65 2630.95 1975 2648 1956.95 2648 1952.4 2648 1948.95 2646.45 1945.45 2645.05 1943.45 2642.2
L 1940.1 2636.5 1938.55 2629.25 1938.3 2608.55
M 1855.65 2546.45
L 1855.65 2543.1
Q 1855.1 2542.15 1852.95 2541.55
L 1830 2537.35 1828 2537.3 1826.3 2537.7 1825.25 2538.35
Q 1824.85 2538.75 1824.5 2539.4 1824.25 2540.2 1824.15 2540.9 1824 2541.5 1823.8 2542.45 1823.6 2543.3 1823.45 2544.1
L 1803.6 2684.9
Q 1802.95 2689.6 1803.75 2690.6 1804.4 2691.55 1808.8 2691.05
L 1883.55 2685.25
Q 1887.75 2684.7 1888.8 2680.9
L 1900.1 2640.7 1834.2 2662.3 1855.65 2546.45
M 1802.95 2551
Q 1799.65 2543.6 1791.2 2541.5 1782.85 2539.4 1773.3 2541.7 1763.7 2544.1 1755.05 2547.9 1746.3 2551.75 1741.25 2555.9
L 1740.65 2542.85
Q 1740.25 2537.95 1738.25 2537.35 1736.1 2537 1727.85 2539.4
L 1725 2540.1 1717.2 2542.85
Q 1715.8 2543.75 1715.6 2547.55
L 1709.4 2685.8
Q 1709.2 2688.9 1710.8 2689.6
L 1720.1 2690.2
Q 1729.15 2690.2 1731.45 2689.1 1733.7 2687.95 1734.05 2684.3
L 1738.05 2646.55 1774.05 2687.6
Q 1776.7 2690.65 1779.05 2690.85 1781.2 2691.05 1783.85 2688.9
L 1796.75 2673.65 1797.75 2670.25
Q 1797.55 2668.55 1794.8 2666.5
L 1758.75 2636.9
Q 1818.7 2587.15 1802.95 2551
M 1758.25 2605.15
Q 1744.45 2618.8 1742.25 2611.95 1735.65 2592.05 1745.9 2586.1 1764.35 2575.5 1770.05 2575.1 1776.3 2574.95 1774.05 2584.15 1773.65 2584.9 1773.45 2585.35 1770.05 2593.75 1758.25 2605.15
M 1658.9 2124.45
Q 1651.15 2124.2 1648.45 2126.6 1645.9 2128.75 1644.85 2135.4
L 1600.3 2478.1 1600.3 2488
Q 1601.45 2491.85 1609.2 2494.85
L 1636.65 2499.5
Q 1654.2 2501.65 1659.15 2497.95 1663.85 2494.25 1666.8 2478.6
L 1728.85 2153.85 1729.35 2144.7
Q 1729.35 2140.95 1725.4 2138.4
L 1712.65 2133.2 1684.85 2154.4 1658.9 2124.45
M 1914.85 2126.85
L 1907.45 2124.7 1766.9 2127.1 1759 2129.15 1755.6 2136.55 1695.75 2488.8 1696.25 2498.2 1705.15 2500.1 1849.35 2494.85
Q 1856.95 2494.25 1858 2486.65
L 1862.45 2422.9 1861.6 2417.1 1858.55 2414.15 1852.25 2414.15 1774.55 2430.4 1783.35 2386.45 1787.3 2377.05 1797.6 2375.7 1837.5 2376.8 1843.25 2375.7 1858 2341 1864.35 2319.7 1862.45 2314.2 1858.3 2310.3 1837.25 2307.65 1799.05 2307.65 1813.55 2220.25 1891.8 2218.7
Q 1900.95 2218.7 1902.5 2210.05
L 1916.85 2132.85
Q 1917.4 2128.75 1914.85 2126.85
M 1547.95 2164.8
Q 1543.5 2139.45 1519.4 2129.4 1495.05 2119.5 1447.45 2133.45 1399.25 2147.75 1382.7 2162 1366.55 2175.75 1367.55 2196.65
L 1380.15 2468.65 1382.2 2477.8 1385.9 2485.2 1391.15 2491.2 1399.25 2495.4 1410.2 2497.2 1424.65 2495.9 1443.35 2491.85 1446.4 2491.85 1454.05 2496.45
Q 1465.25 2501.65 1484.85 2498.95 1501.05 2496.95 1516.45 2489.3 1558.4 2467.9 1581.95 2417.1 1606 2363.9 1591.65 2324.3 1575.2 2278.15 1511.75 2285.1 1532.65 2254.6 1542.7 2222.4 1552.65 2190.25 1547.95 2164.8
M 1445.3 2197.2
L 1457.9 2193.6 1472.5 2192.25
Q 1493.55 2192.25 1499.05 2204.3 1507.35 2221.35 1487.3 2246.95 1466.75 2272.95 1444.25 2274.4 1435.7 2274.4 1432.7 2257.3 1429.85 2240.25 1430.45 2222.95 1431 2212.6 1434.85 2206.45 1438.75 2199.85 1445.3 2197.2
M 1512.8 2341
L 1520.45 2341
Q 1552.65 2344.05 1536.95 2379.45 1525.15 2406.35 1501.6 2424.85
L 1493 2431.45 1481.45 2437.7
Q 1474.65 2441.25 1469.95 2440.15 1465.25 2439.1 1464.2 2433.1
L 1454.05 2363.9
Q 1452.95 2354.25 1475.2 2347.4 1497.45 2341 1512.8 2341
M 2105.85 2148.5
Q 2089.2 2121 2048.2 2117.25 1999.15 2112.8 1961.9 2143.4 1912.4 2183.5 1920.95 2260.85 1921.95 2272.75 1930.55 2287.05
L 1949.95 2314.7 1992.9 2367.85
Q 2000.85 2378.75 2004.1 2389.6 2007.3 2400.35 2000.05 2405.45 1997.25 2409.25 1993.2 2409.2
L 1986.4 2408.8 1980.1 2404.95 1940.15 2364.95 1933.1 2359.3 1926.2 2355.3 1920.8 2354.95 1914.45 2357.85 1908.05 2365.1 1900.25 2376.05
Q 1886.05 2395.65 1890.35 2408.45 1894.85 2421.15 1930.3 2460.4 1953.95 2486.75 1982.15 2496.55 2026.65 2512.1 2062.1 2485.15 2093.75 2461.5 2095.85 2420.55 2098.95 2359.85 2032.8 2306.45 2016.4 2292.95 2006.8 2272.6 1997.05 2252.4 1999.2 2231.35 2001.45 2210.4 2017.95 2198
L 2012.75 2225.2 2014.95 2235.4 2022.15 2244.15 2055.5 2270.1
Q 2061.95 2273.4 2067.85 2267.05
L 2084.3 2247.6
Q 2130.3 2187.8 2105.85 2148.5
M 191.55 2122.95
L 162.5 2136.35 6.55 2172.95
Q -7.95 2243.05 9.75 2251.15 5.35 2279.8 21.8 2295.7 37.7 2311.6 46.1 2305.2
L 78.45 2281.3 177.35 2212.75
Q 126.25 2308.1 32.2 2452.2 21.4 2467.35 22.25 2476.95 23.1 2486.15 37 2505.3 50.35 2523.55 58.7 2528.25 66.65 2532.5 79.35 2529
L 290.65 2505.25 264.05 2485.2 284.1 2463.45
Q 270.7 2404.2 268.95 2400.6 265.75 2399 262.15 2397.75 256.9 2396.4 251.7 2398.4
L 179.5 2415.4 137.6 2422.95 318.35 2154.4 302.25 2137.5 302.5 2129.1 297.25 2123.65 285 2120.55 265.75 2118.95 210.35 2118.95 191.55 2122.95
M 1078.6 2141.9
L 1056.85 2141.9
Q 1036.75 2141.9 1024.45 2150.25 1012.15 2158.45 984.75 2182.3
L 990.75 2480.6
Q 989 2490.3 987.7 2498.95 986.3 2507.6 1013.5 2509.75 1040.65 2511.85 1050.2 2501.4 1059.5 2491 1060.55 2470.15
L 1073.65 2219 1105.95 2420.6
Q 1135.15 2505.9 1164.4 2511.75 1178.4 2510.95 1187.05 2503.15 1196.75 2494.45 1200.8 2484.1
L 1211.35 2450.85 1278.95 2219 1265.9 2470.15
Q 1264.85 2491 1273.25 2501.4 1281.65 2511.85 1295.65 2511.85 1310.55 2511.85 1320.1 2501.4 1329.35 2491 1346.1 2485.85
L 1345.35 2171.85
Q 1345.7 2168.05 1338.5 2147.65 1236.45 2132.1 1237.4 2164.65
L 1228.15 2190.45 1167.4 2389.8 1127.45 2190.45 1119.35 2158.95
Q 1115.55 2149.25 1107.05 2145.6 1098.25 2141.9 1078.6 2141.9 Z"/>
</g>

<g id="Duplicate_Items_Folder_head_copy_7_Layer2_0_FILL">
<path fill="#000000" stroke="none" d="
M -37.15 13.7
Q -37.35 11.2 -37.9 8.9 -41.6671875 -12.578125 -59.8 -15.3 -43.9552734375 -12.2236328125 -38.95 7.65 -38.25 10.65 -37.7 13.85 -37.55 13.7 -37.15 13.7
M -81.7 -13.4
L -81.7 -13.25
Q -80.15 -13.75 -78.55 -14.2 -80.15 -13.9 -81.7 -13.4
M 35.2 -12.2
Q 32.9 -12.45 30.8 -12.15 13 -10.95 8.6 8.6 7.7 11.75 7.35 15.45 8.05 15.6 8.95 16 9.15 16 9.3 16 10.2 10.05 11.75 5.55 17.05 -9.6 30.25 -11.85 32.55 -12.3 35.2 -12.2 Z"/>

<path fill="#017373" stroke="none" d="
M -81.7 -13.25
Q -82.4 -13.1 -83.1 -12.95 -83.1 -12.6 -83.1 -12.25 -79.05 32.75 -38.95 19.8 -38.05 19.45 -37.15 19.15 -37.35 16.3 -37.7 13.85 -38.25 10.65 -38.95 7.65 -43.9552734375 -12.2236328125 -59.8 -15.3 -60.1947265625 -15.3494140625 -60.6 -15.4 -61.0642578125 -15.5326171875 -61.55 -15.6
L -62 -15.65
Q -69.2 -16.35 -78.55 -14.2 -80.15 -13.75 -81.7 -13.25
M 35.2 -12.2
Q 32.55 -12.3 30.25 -11.85 17.05 -9.6 11.75 5.55 10.2 10.05 9.3 16 8.75 18.45 8.6 21.1 9.3 21.3 10.2 21.7 50.5 37.4 54.35 -7.35 54.35 -7.9 54.35 -8.25 43.45 -12.3 35.2 -12.2 Z"/>

<path fill="#8DE4E4" stroke="none" d="
M -45.9 -109.3
Q -47.8396484375 -109.3978515625 -49.6 -109.85 -57.4859375 -104.762890625 -64.65 -96.65 -87.35 -71.35 -93 -105.65 -96.88203125 -129.6013671875 -87.35 -143.45 -87.4171875 -144.553515625 -87.4 -145.7 -87.3513671875 -148.929296875 -86.5 -151.65 -101.1365234375 -140.3484375 -108.65 -119.35 -109 -118.65 -109.2 -118 -108.65 -68.5 -100.4 -33.55 -98.95 -27.9 -97.4 -22.55
L -70.45 -26.1 -60.6 -15.4
Q -60.1947265625 -15.3494140625 -59.8 -15.3 -41.6671875 -12.578125 -37.9 8.9 -21.438671875 18.2990234375 -20.1 -12 -21.35 -15.9 -22.75 -21.6
L -22.75 -103.95
Q -22.8673828125 -103.961328125 -23 -104 -24.9998046875 -102.85546875 -27.4 -103 -31.55 -103.2 -34.45 -107.1 -35.9248046875 -109.1181640625 -36.65 -111.55 -40.5951171875 -108.9904296875 -45.9 -109.3
M 46.75 -153.55
Q 49.275 -152.075 51.55 -150.4 74.25 -135.1 65.65 -100.85 57 -66.8 37.3 -90.15 29.69453125 -99.187890625 20.6 -105.4 20.4458984375 -105.1044921875 20.25 -104.85 19.5560546875 -103.9001953125 18.65 -103.7 18.7166015625 -102.844140625 18.7 -101.95 18.65 -96.55 15.55 -93 12.45 -89.4 8.1 -89.65 6.4740234375 -89.7255859375 5 -90.35 4.4861328125 -87.26484375 2.55 -85 -0.1 -81.85 -3.9 -82.05 -7.185546875 -82.2251953125 -9.55 -84.9
L -9.55 -21.2
Q -10.25 -14.35 -11.1 -10 -5.661328125 13.30703125 8.6 8.6 13 -10.95 30.8 -12.15
L 43.1 -23.9 66.85 -14.35
Q 68.8 -20.8 70.55 -27.8 78.85 -62.25 79.35 -111.7 79.2 -112.4 78.85 -113.1 69.0744140625 -141.395703125 46.75 -153.55 Z"/>

<path fill="#C8FCFC" stroke="none" d="
M -66.7 -123.6
Q -74.1 -124 -79.3 -128.95 -80.3484375 -129.9578125 -81.2 -131.05 -82.778515625 -132.24375 -84.15 -134.2 -86.9224609375 -138.2138671875 -87.35 -143.45 -96.88203125 -129.6013671875 -93 -105.65 -87.35 -71.35 -64.65 -96.65 -57.4859375 -104.762890625 -49.6 -109.85 -52.718359375 -110.687109375 -55.25 -112.7 -56.607421875 -113.5119140625 -57.5 -114.85 -59.070703125 -116.7140625 -59.7 -118.9 -61.0015625 -121.5150390625 -61.75 -123.9 -64.0890625 -123.459765625 -66.7 -123.6
M 51.55 -150.4
Q 49.275 -152.075 46.75 -153.55
L 41.5 -156.15
Q 38.150390625 -157.6453125 34.45 -158.85 35.5658203125 -157.3376953125 36.45 -155.75 43.2419921875 -155.0392578125 48.55 -151.55 53.8646484375 -148.0521484375 55.45 -144.7 57.0763671875 -141.2986328125 50.75 -137.05 44.484375 -132.808984375 40.25 -132.25 40.8787109375 -119.9158203125 34.15 -114.75 27.784375 -109.8021484375 20.85 -110.25 21.333984375 -109.2072265625 21.3 -107.95 21.259765625 -106.50234375 20.6 -105.4 29.69453125 -99.187890625 37.3 -90.15 57 -66.8 65.65 -100.85 74.25 -135.1 51.55 -150.4 Z"/>

<path fill="#99CC00" stroke="none" d="
M -12.55 -166.7
Q -8.15 -166.55 -3.7 -166.25 -8.3 -166.75 -12.7 -166.9 -13.75 -167.1 -14.65 -166.95 -15.15 -167.3 -15.85 -167.35 -16.4 -167.35 -17.1 -167.35 -27.3 -167.7 -37.7 -166.6 -48.25 -165.7 -59.2 -163.4 -65.7361328125 -162.2033203125 -71.55 -160 -70.0146484375 -159.171875 -68.7 -157.75 -47.3462890625 -167.3732421875 -12.55 -166.7 Z"/>

<path fill="#88A901" stroke="none" d="
M -22.75 -165.8
L -22.75 -152.25
Q -18.816796875 -153.1314453125 -14.4 -152.9 -11.891796875 -152.769140625 -9.55 -152.3
L -9.55 -165.4 -22.75 -165.8 Z"/>

<path fill="#7FC3C3" stroke="none" d="
M 30.8 -12.15
Q 32.9 -12.45 35.2 -12.2 43.45 -12.3 54.35 -8.25 54.35 -7.9 54.35 -7.35 50.5 37.4 10.2 21.7 9.3 21.3 8.6 21.1 8.75 18.45 9.3 16 9.15 16 8.95 16 8.05 15.6 7.35 15.45 7.7 11.75 8.6 8.6 -5.661328125 13.30703125 -11.1 -10 -10.25 -14.35 -9.55 -21.2
L -9.55 -84.9
Q -9.8841796875 -85.27265625 -10.2 -85.7 -12.75 -89.1 -12.7 -93.75 -12.668359375 -95.209765625 -12.4 -96.55 -12.46875 -97.0427734375 -12.55 -97.6 -14.06875 -96.0025390625 -15.8 -96.35 -19.229296875 -96.9828125 -22.75 -103.95
L -22.75 -21.6
Q -21.35 -15.9 -20.1 -12 -21.438671875 18.2990234375 -37.9 8.9 -37.35 11.2 -37.15 13.7 -37.55 13.7 -37.7 13.85 -37.35 16.3 -37.15 19.15 -38.05 19.45 -38.95 19.8 -79.05 32.75 -83.1 -12.25 -83.1 -12.6 -83.1 -12.95 -82.4 -13.1 -81.7 -13.25
L -81.7 -13.4
Q -80.15 -13.9 -78.55 -14.2 -69.2 -16.35 -62 -15.65
L -61.55 -15.6
Q -61.0642578125 -15.5326171875 -60.6 -15.4
L -70.45 -26.1 -97.4 -22.55
Q -76.6 47.8 -19.05 50.3 -16.75 50.4 -14.65 51 -12.7 50.85 -10.75 50.95 45.75 52 66.85 -14.35
L 43.1 -23.9 30.8 -12.15 Z"/>

<path fill="#CC0000" stroke="none" d="
M 6.75 -165.05
Q 4.1806640625 -163.3134765625 1.9 -160.65 -1.908984375 -156.1408203125 -3.65 -150.45 -6.444140625 -151.6705078125 -9.55 -152.3 -11.891796875 -152.769140625 -14.4 -152.9 -18.816796875 -153.1314453125 -22.75 -152.25 -29.0130859375 -150.83828125 -34.05 -146.6 -35.6896484375 -145.2017578125 -37 -143.7 -39.9318359375 -144.7283203125 -43.3 -144.9 -46.5923828125 -145.06875 -49.5 -144.35 -50.7609375 -147.547265625 -53.6 -150.25 -58.8 -155.2 -66.25 -155.6 -66.6548828125 -155.621875 -67.05 -155.65 -67.1740234375 -155.8158203125 -67.3 -156 -67.9646484375 -156.962109375 -68.7 -157.75 -70.0146484375 -159.171875 -71.55 -160
L -72.3 -160.4
Q -71.2298828125 -159.8041015625 -77.9 -157.1 -84.6046875 -154.371484375 -86.5 -151.65 -87.3513671875 -148.929296875 -87.4 -145.7 -87.4171875 -144.553515625 -87.35 -143.45 -86.9224609375 -138.2138671875 -84.15 -134.2 -82.778515625 -132.24375 -81.2 -131.05 -80.3484375 -129.9578125 -79.3 -128.95 -74.1 -124 -66.7 -123.6 -64.0890625 -123.459765625 -61.75 -123.9 -61.0015625 -121.5150390625 -59.7 -118.9 -59.070703125 -116.7140625 -57.5 -114.85 -56.607421875 -113.5119140625 -55.25 -112.7 -52.718359375 -110.687109375 -49.6 -109.85 -47.8396484375 -109.3978515625 -45.9 -109.3 -40.5951171875 -108.9904296875 -36.65 -111.55 -35.9248046875 -109.1181640625 -34.45 -107.1 -31.55 -103.2 -27.4 -103 -24.9998046875 -102.85546875 -23 -104 -22.8673828125 -103.961328125 -22.75 -103.95 -19.229296875 -96.9828125 -15.8 -96.35 -14.06875 -96.0025390625 -12.55 -97.6 -12.46875 -97.0427734375 -12.4 -96.55 -12.668359375 -95.209765625 -12.7 -93.75 -12.75 -89.1 -10.2 -85.7 -9.8841796875 -85.27265625 -9.55 -84.9 -7.185546875 -82.2251953125 -3.9 -82.05 -0.1 -81.85 2.55 -85 4.4861328125 -87.26484375 5 -90.35 6.4740234375 -89.7255859375 8.1 -89.65 12.45 -89.4 15.55 -93 18.65 -96.55 18.7 -101.95 18.7166015625 -102.844140625 18.65 -103.7 19.5560546875 -103.9001953125 20.25 -104.85 20.4458984375 -105.1044921875 20.6 -105.4 21.259765625 -106.50234375 21.3 -107.95 21.333984375 -109.2072265625 20.85 -110.25 27.784375 -109.8021484375 34.15 -114.75 40.8787109375 -119.9158203125 40.25 -132.25 44.484375 -132.808984375 50.75 -137.05 57.0763671875 -141.2986328125 55.45 -144.7 53.8646484375 -148.0521484375 48.55 -151.55 43.2419921875 -155.0392578125 36.45 -155.75 35.5658203125 -157.3376953125 34.45 -158.85 34.4306640625 -158.859375 34.4 -158.9 27.85 -167.6 18.3 -168.15 11.9296875 -168.48359375 6.75 -165.05 Z"/>

<path fill="#D3FD2D" stroke="none" d="
M 1.9 -160.65
Q 4.1806640625 -163.3134765625 6.75 -165.05 1.3666015625 -165.8880859375 -3.7 -166.25 -8.15 -166.55 -12.55 -166.7 -47.3462890625 -167.3732421875 -68.7 -157.75 -67.9646484375 -156.962109375 -67.3 -156 -67.1740234375 -155.8158203125 -67.05 -155.65 -66.6548828125 -155.621875 -66.25 -155.6 -58.8 -155.2 -53.6 -150.25 -50.7609375 -147.547265625 -49.5 -144.35 -46.5923828125 -145.06875 -43.3 -144.9 -39.9318359375 -144.7283203125 -37 -143.7 -35.6896484375 -145.2017578125 -34.05 -146.6 -29.0130859375 -150.83828125 -22.75 -152.25
L -22.75 -165.8 -9.55 -165.4 -9.55 -152.3
Q -6.444140625 -151.6705078125 -3.65 -150.45 -1.908984375 -156.1408203125 1.9 -160.65 Z"/>
</g>

<g id="Duplicate_Items_Folder_head_copy_7_Layer1_0_FILL">
<path fill="#000000" stroke="none" d="
M -19.05 19.7
Q -17.65 18.7 -17.65 17.1 -17.65 15.5 -19.05 14.25 -20.45 13.1 -22.4 13.05 -24.3 13 -25.75 14.05 -27.15 15.2 -27.15 16.8 -27.15 18.4 -25.75 19.5 -24.3 20.75 -22.4 20.8 -20.45 20.85 -19.05 19.7
M -12.55 14.95
Q -13.95 16.2 -13.95 17.75 -13.95 19.35 -12.55 20.4 -11.1 21.7 -9.2 21.8 -7.25 21.85 -5.85 20.65 -4.45 19.65 -4.45 18.05 -4.45 16.5 -5.85 15.2 -7.25 14.1 -9.2 14.05 -11.1 13.95 -12.55 14.95
M -81.7 -17.25
Q -81.7 -16.9 -81.7 -16.5 -69.9 13.6 -38.75 11.85 -37.9 11.5 -37.15 11.4 -41.05 -28.6 -81.7 -17.25
M -55.3 -7.5
Q -58.85 -11.35 -60.6 -8.25 -62.35 -5.1 -62.35 -6.95 -62.35 -8.85 -60.25 -11.9 -57.95 -15.2 -54.8 -12.3 -51.6 -9.4 -49.3 -8.45 -47.2 -7.15 -47.2 -5.9 -47.2 -4.6 -49.5 -4.15 -51.8 -3.65 -55.3 -7.5
M 51.9 -11.7
Q 51.9 -12.1 51.9 -12.45 11.25 -26.5 7.35 13.25 8.05 13.4 8.95 13.8 40.1 17.65 51.9 -11.7
M 17.4 -3.4
Q 17.4 -4.7 19.5 -5.75 21.8 -6.6 24.95 -9.3 28.15 -12 30.45 -8.5 32.55 -5.3 32.55 -3.4 32.55 -1.55 30.8 -4.8 29 -8 25.5 -4.4 22 -0.85 19.7 -1.45 17.4 -2.1 17.4 -3.4 Z"/>

<path fill="#FF0000" stroke="none" d="
M -81.7 -16.5
Q -77.85 23.2 -38.75 11.85 -69.9 13.6 -81.7 -16.5
M 51.9 -11.7
Q 40.1 17.65 8.95 13.8 48.05 27.8 51.9 -11.7 Z"/>

<path fill="#C8FCFC" stroke="none" d="
M -60.6 -8.25
Q -58.85 -11.35 -55.3 -7.5 -51.8 -3.65 -49.5 -4.15 -47.2 -4.6 -47.2 -5.9 -47.2 -7.15 -49.3 -8.45 -51.6 -9.4 -54.8 -12.3 -57.95 -15.2 -60.25 -11.9 -62.35 -8.85 -62.35 -6.95 -62.35 -5.1 -60.6 -8.25
M 19.5 -5.75
Q 17.4 -4.7 17.4 -3.4 17.4 -2.1 19.7 -1.45 22 -0.85 25.5 -4.4 29 -8 30.8 -4.8 32.55 -1.55 32.55 -3.4 32.55 -5.3 30.45 -8.5 28.15 -12 24.95 -9.3 21.8 -6.6 19.5 -5.75 Z"/>
</g>

<g id="Duplicate_Items_Folder_brain_0_Layer1_0_FILL">
<path fill="url(#Gradient_1)" stroke="none" d="
M 54.3 -25.15
Q 53.940234375 -38.790625 40.2 -39.65 33.9564453125 -55.0728515625 18.05 -52.1 2.893359375 -66.0568359375 -13.05 -54.25 -22.6251953125 -59.7322265625 -33.65 -55.25 -41.0111328125 -49.2265625 -40.6 -39.4 -57.031640625 -39.735546875 -51.35 -24.4
L -44.55 -31.05 -51.35 -24.4
Q -51.3103515625 -24.377734375 -51.3 -24.35 -60.3833984375 -8.9001953125 -51.45 1.8 -50.5564453125 -3.71640625 -46.1 -4.55 -50.5564453125 -3.71640625 -51.45 1.8 -51.378515625 1.9076171875 -51.3 2 -50.5974609375 13.850390625 -37 10.8 -36.8693359375 10.80234375 -36.75 10.75 -32.53671875 9.2123046875 -32.4 5.7 -32.53671875 9.2123046875 -36.75 10.75 -36.60234375 10.7365234375 -36.45 10.7 -25.3421875 27.440234375 -7.9 23 -7.7400390625 23.1150390625 -7.6 23.2 -12.7943359375 18.4375 -13.3 13.65 -12.7943359375 18.4375 -7.6 23.2 8.272265625 34.367578125 23.4 19.95 18.9185546875 15.9625 19.3 11.95 18.9185546875 15.9625 23.4 19.95 23.5146484375 19.8818359375 23.6 19.8 28.65 23.90546875 33.7 19.4 50.537109375 14.840234375 48.35 1 65.61640625 -6.01796875 54.3 -25.15
M 30.9 -33.9
Q 30.9802734375 -33.8033203125 31.05 -33.7 42.66484375 -33.438671875 45.55 -24.15 47.019921875 -19.528125 46.3 -12.65 47.4189453125 -21.3365234375 53.8 -24.65 47.4189453125 -21.3365234375 46.3 -12.65
L 46.25 -12.4 46.3 -12.65
Q 47.019921875 -19.528125 45.55 -24.15
L 38.85 -17.9
Q 38.7333984375 -8.1189453125 32.95 -4.5 30.38515625 -2.869921875 26.7 -2.15 24.6384765625 4.817578125 30.1 11.75 24.6384765625 4.817578125 26.7 -2.15 26.0134765625 -3.132421875 25.2 -4.15 26.0134765625 -3.132421875 26.7 -2.15 30.38515625 -2.869921875 32.95 -4.5
L 29.95 -11.55
Q 26.411328125 -22.0224609375 30.9 -33.9 21.163671875 -48.1505859375 8.15 -36.95 4.584765625 -34.01328125 3.8 -14.95 4.584765625 -34.01328125 8.15 -36.95 -6.79609375 -49.6931640625 -13.4 -33.7 -12.054296875 -28.126953125 -13 -23.4 -12.7435546875 -16.067578125 -8.4 -18.55 -8.1923828125 -26.7486328125 -3.8 -34.3 -8.1923828125 -26.7486328125 -8.4 -18.55 -8.4376953125 -16.3953125 -8.2 -14.2 -4.4548828125 -2.6625 1.15 0 9.2736328125 -10.3119140625 25 -4.55 9.2736328125 -10.3119140625 1.15 0 -0.3220703125 1.9234375 -1.55 4.35
L -1.55 4.5
Q -1.435546875 4.6447265625 -1.35 4.8 1.7951171875 10.0697265625 0.75 15.35 1.7951171875 10.0697265625 -1.35 4.8 -1.435546875 4.6447265625 -1.55 4.5 -12.6044921875 -2.19921875 -24.3 1.35 -24.043359375 4.2046875 -25.2 7.05 -24.043359375 4.2046875 -24.3 1.35 -24.7720703125 -4.6740234375 -31.8 -10.7 -31.6998046875 -10.825 -31.8 -10.95
L -32.35 -16.3 -36.4 -17.05 -32.35 -16.3 -32.3 -16.3 -32.55 -18.15 -32.6 -23.8
Q -45.96171875 -23.916015625 -40.55 -11.15 -35.2060546875 -8.781640625 -39.05 0.35 -35.2060546875 -8.781640625 -40.55 -11.15 -45.96171875 -23.916015625 -32.6 -23.8 -32.451171875 -23.8029296875 -32.3 -23.8 -30.79609375 -44.6798828125 -13.4 -33.7 -6.79609375 -49.6931640625 8.15 -36.95 21.163671875 -48.1505859375 30.9 -33.9
M 40.15 -39.4
L 35.8 -38.85 40.15 -39.4
M 7.8 -48.15
Q 11.1962890625 -46.9630859375 11.55 -45.1 16.35625 -50.16796875 28.05 -47.75 16.35625 -50.16796875 11.55 -45.1 11.1962890625 -46.9630859375 7.8 -48.15
M 19.15 -6.85
Q 16.59375 -18.6658203125 20.1 -28.6 16.59375 -18.6658203125 19.15 -6.85
M 47.75 -3
L 48.5 -6.8 47.75 -3
Q 44.525 0.2986328125 41.3 0.6 44.525 0.2986328125 47.75 -3
M 15.9 13.85
Q 18.35 10.05 22.15 11.4 18.35 10.05 15.9 13.85
M -8.75 -49.65
L -12.7 -53.8 -8.75 -49.65
Q -12.572265625 -43.6994140625 -20.1 -43.6 -12.572265625 -43.6994140625 -8.75 -49.65
M -38.1 -34.5
L -33.95 -35.45
Q -32.1298828125 -37.844140625 -33.55 -40.75 -32.1298828125 -37.844140625 -33.95 -35.45
L -38.1 -34.5 Z"/>

<path fill="#FB62BE" stroke="none" d="
M -32.3 -23.8
Q -32.451171875 -23.8029296875 -32.6 -23.8
L -32.55 -18.15 -32.3 -16.3 -32.35 -16.3 -31.8 -10.95
Q -31.6998046875 -10.825 -31.8 -10.7 -24.7720703125 -4.6740234375 -24.3 1.35 -12.6044921875 -2.19921875 -1.55 4.5
L -1.55 4.35
Q -0.3220703125 1.9234375 1.15 0 -4.4548828125 -2.6625 -8.2 -14.2 -8.4376953125 -16.3953125 -8.4 -18.55 -12.7435546875 -16.067578125 -13 -23.4 -13.7802734375 -19.4578125 -16.3 -16.1 -13.7802734375 -19.4578125 -13 -23.4 -12.054296875 -28.126953125 -13.4 -33.7 -30.79609375 -44.6798828125 -32.3 -23.8
M -25.2 -15.35
Q -23.9900390625 -9.5892578125 -15.95 -5.65 -23.9900390625 -9.5892578125 -25.2 -15.35 -26.4482421875 -23.6984375 -22.95 -29.75 -26.4482421875 -23.6984375 -25.2 -15.35
M 31.05 -33.7
Q 30.9802734375 -33.8033203125 30.9 -33.9 26.411328125 -22.0224609375 29.95 -11.55
L 32.95 -4.5
Q 38.7333984375 -8.1189453125 38.85 -17.9 38.85 -18.09296875 38.85 -18.3 38.85 -18.09296875 38.85 -17.9
L 45.55 -24.15
Q 42.66484375 -33.438671875 31.05 -33.7 Z"/>
</g>

<g id="Duplicate_Items_Folder_brain_0_Layer0_0_FILL">
<path fill="#FED6EE" stroke="none" d="
M -6.8 8.15
Q -5.55 9.2 -5.3 7.8 -5.05 6.45 -6.9 5.05 -8.75 3.7 -11.6 3.15 -14.5 2.55 -16.7 3.15 -19 3.7 -19.25 5.1 -19.5 6.5 -16 5.2 -12.55 3.9 -10.35 5.45 -8.05 7.05 -6.8 8.15
M 11.65 -2.9
Q 7.7 -2.1 5.2 -0.35 2.65 1.4 3 3.05 3.35 4.7 7.1 1.55 10.8 -1.6 14.4 -1 18.1 -0.45 20.2 0.1 22.3 0.65 21.95 -1 21.6 -2.65 18.55 -3.2 15.55 -3.75 11.65 -2.9
M 3.55 -34.65
Q 3.25 -36.8 1.15 -38.4 -0.8 -39.9 -3.4 -40 -6.05 -40.1 -7.65 -38.6 -9.3 -37.15 -9 -34.95 -8.7 -32.75 -6.3 -35.7 -3.9 -38.6 -1.5 -36.85 1 -35 2.4 -33.7 3.85 -32.45 3.55 -34.65 Z"/>

<path fill="#FDBDE3" stroke="none" d="
M -15.9 -30
Q -16.2 -32.15 -18.3 -33.75 -20.25 -35.25 -22.85 -35.35 -25.5 -35.45 -27.1 -33.95 -28.75 -32.5 -28.45 -30.3 -28.15 -28.1 -25.75 -31.05 -23.35 -33.95 -20.95 -32.2 -18.45 -30.35 -17.05 -29.05 -15.6 -27.8 -15.9 -30 Z"/>

<path fill="#FA1FA3" stroke="none" d="
M -52.9 -14.15
Q -53.4 -10.6 -52.2 -8.1 -51.05 -5.6 -48.9 -5.7 -46.75 -5.85 -49.25 -9.55 -51.65 -13.25 -49.65 -16.3 -47.6 -19.4 -46.2 -21.15 -44.75 -22.95 -46.9 -22.85 -49 -22.7 -50.75 -20.1 -52.4 -17.65 -52.9 -14.15
M 42.15 11.45
Q 44.25 9.05 44.4 6.5 44.6 4 42.75 2.95 40.85 1.95 41.2 6.05 41.5 10.1 38.35 11.3 35.2 12.6 33.2 13.15 31.1 13.7 33 14.8 34.8 15.8 37.5 14.8 40.1 13.85 42.15 11.45 Z"/>

<path fill="#FDCEEF" stroke="none" d="
M -26.65 -51.6
Q -22.9 -51.5 -20.65 -51.2 -18.35 -50.95 -19.75 -52.75 -21.15 -54.45 -24.25 -54.55 -27.25 -54.7 -30.3 -53.25 -33.45 -51.75 -34.65 -49.4 -35.95 -47.1 -34.55 -45.3 -33.15 -43.55 -31.75 -47.65 -30.25 -51.7 -26.65 -51.6
M 3.1 -54.25
Q 6.65 -53 8.7 -52.05 10.8 -51.15 9.95 -52.95 9.05 -54.7 6.15 -55.75 3.35 -56.8 0.1 -56.7 -3.3 -56.55 -5 -55.15 -6.85 -53.85 -5.95 -52.05 -5.1 -50.25 -2.7 -52.9 -0.25 -55.45 3.1 -54.25 Z"/>

<path fill="#F90698" stroke="none" d="
M 10.75 20.1
Q 6.2 22.75 2.15 20.95 -1.95 19.1 -4.25 17.9 -6.65 16.55 -6.35 18.7 -6.05 20.75 -2.65 22.3 0.6 23.8 5.1 24.05 9.65 24.3 12.8 22.95 15.95 21.65 15.7 19.5 15.4 17.4 10.75 20.1 Z"/>

<path fill="#FEE7F5" stroke="none" d="
M 27.2 -33.5
Q 26.8 -35.65 24.05 -37.25 21.45 -38.75 18.05 -38.85 14.55 -38.95 12.45 -37.45 10.25 -36 10.65 -33.8 11.05 -31.6 14.2 -34.55 17.4 -37.45 20.55 -35.7 23.85 -33.85 25.7 -32.55 27.6 -31.3 27.2 -33.5 Z"/>

<path fill="#FDB5E0" stroke="none" d="
M 38.4 -28.35
Q 36.85 -30.25 34.3 -30.85 32.75 -31.2 31.4 -30.95
L 30.65 -27.25
Q 33.55 -29.55 35.5 -27.4 37.6 -25.1 38.65 -23.5 39.85 -22 40 -24.2 40.15 -26.35 38.4 -28.35 Z"/>
</g>

<g id="Duplicate_Items_Folder_world_copy_2_0_Layer0_0_FILL">
<path fill="#000000" stroke="none" d="
M 844.15 184.05
Q 842.3 181.45 841.35 180.15 830 164.45 817.35 149.75 801.8 131.1 785.95 114.85 712.85 44.65 645.35 26.05 577.8 7.45 448.75 0.45 319.75 -6.6 173.8 94.25 64.1 170.05 26.6 304.1 14.25 348.35 9.75 398.95 2.4 425.4 0.6 454.45 -5.3 549.1 47.85 671.4 91.5208984375 731.348828125 98.8 746.7 106.1341796875 762.10078125 103.95 761.05 101.755078125 760.049609375 111.55 770.85
L 167.1 828
Q 179.2 839.05 192.6 849.15 194.9 849.45 195.85 850.8 213.4 863.8 232.65 873.55 240.05 879.8 322.2 903.85 404.35 927.9 419.25 928.8 568.1 937.55 681.05 872.45 794.05 807.4 826.75 775.5 859.45 743.6 883.95 680.45 899.35 629.4 915.8 556.45 918.05 542.65 928.7 474.6 939.35 406.6 920.3 357 915 332.7 908.35 309.45 903.8 294.7 896.95 279.6
L 860.25 206.35
Q 851.7 194.55 844.15 184.05
M 686.85 176.4
Q 753.55 224.6 755.9 280.35 789.25 326.65 802.35 400 804.65 416.55 805.85 434.35 807.05 448.55 807.05 462.7 807.05 463.9 807.05 466.25 807.05 475.75 807.05 486.4 804.65 515.95 797.6 545.55 795.25 557.4 791.65 568 785.75 584.55 778.65 601.1 765.7 658.35 732.55 683.55 699.35 708.8 692.3 715.9 652.05 751.4 605.95 771.55 575.15 784.55 542 791.65 498.85 826 406.4 804.75 313.9 783.5 247.4 714.75 228.35 705.5 199.55 678.4 170.7 651.3 162.25 599.95 155.05 585.75 150.4 570.4 150.4 569.2 149.2 568 145.65 556.2 143.3 544.35 136.2 506.5 135 486.4 133.8 475.75 133.8 465.1 133.8 463.9 133.8 462.7 133.8 429.6 139.75 400 131.75 300.6 232.05 223.7 330.2 125.5 475.2 126.8 620.15 128.1 686.85 176.4 Z"/>

<path fill="#CCCCCC" stroke="none" d="
M 755.9 280.35
Q 753.55 224.6 686.85 176.4 620.15 128.1 475.2 126.8 330.2 125.5 232.05 223.7 131.75 300.6 139.75 400 133.8 429.6 133.8 462.7 133.8 463.9 133.8 465.1 133.8 475.75 135 486.4 136.2 506.5 143.3 544.35 145.65 556.2 149.2 568 150.4 569.2 150.4 570.4 155.05 585.75 162.25 599.95 170.7 651.3 199.55 678.4 228.35 705.5 247.4 714.75 313.9 783.5 406.4 804.75 498.85 826 542 791.65 575.15 784.55 605.95 771.55 652.05 751.4 692.3 715.9 699.35 708.8 732.55 683.55 765.7 658.35 778.65 601.1 785.75 584.55 791.65 568 795.25 557.4 797.6 545.55 804.65 515.95 807.05 486.4 807.05 475.75 807.05 466.25 807.05 463.9 807.05 462.7 807.05 448.55 805.85 434.35 804.65 416.55 802.35 400 789.25 326.65 755.9 280.35
M 490.35 334.25
Q 491.6 315 504.35 304.75 517.15 294.55 539.55 305 561.95 315.4 568.2 327.7 574.45 340.05 568.2 354.3 561.95 368.5 546.85 376.4 531.75 384.3 516.65 381.2 501.6 378.15 495.35 365.85 489.1 353.5 490.35 334.25
M 192.1 370.15
Q 197.65 352.6 213.75 344.15 229.9 335.7 247.15 341.4 264.45 347 272.7 363.35 281.05 379.75 275.5 397.25 269.95 414.8 253.7 426.3 237.35 437.85 218.45 458.4 199.55 478.95 193.05 433.35 186.6 387.7 192.1 370.15
M 384.2 661.3
Q 401.3 627.6 439.6 607.55 477.85 587.55 514.8 592.95 551.8 598.4 580.2 640.25 608.6 682.15 587.45 711.9 566.25 741.6 517.65 751.3 469 761.05 432.05 755.65 395.1 750.3 381.05 722.65 367.05 695 384.2 661.3 Z"/>

<path fill="#999999" stroke="none" d="
M 439.6 607.55
Q 401.3 627.6 384.2 661.3 367.05 695 381.05 722.65 395.1 750.3 432.05 755.65 469 761.05 517.65 751.3 566.25 741.6 587.45 711.9 608.6 682.15 580.2 640.25 551.8 598.4 514.8 592.95 477.85 587.55 439.6 607.55
M 213.75 344.15
Q 197.65 352.6 192.1 370.15 186.6 387.7 193.05 433.35 199.55 478.95 218.45 458.4 237.35 437.85 253.7 426.3 269.95 414.8 275.5 397.25 281.05 379.75 272.7 363.35 264.45 347 247.15 341.4 229.9 335.7 213.75 344.15
M 504.35 304.75
Q 491.6 315 490.35 334.25 489.1 353.5 495.35 365.85 501.6 378.15 516.65 381.2 531.75 384.3 546.85 376.4 561.95 368.5 568.2 354.3 574.45 340.05 568.2 327.7 561.95 315.4 539.55 305 517.15 294.55 504.35 304.75 Z"/>
</g>

<g id="Duplicate_Items_Folder_world_copy_0_Layer0_0_FILL">
<path fill="#000000" stroke="none" d="
M 844.15 184.05
Q 842.3 181.45 841.35 180.15 830 164.45 817.35 149.75 801.8 131.1 785.95 114.85 712.85 44.65 645.35 26.05 577.8 7.45 448.75 0.45 319.75 -6.6 173.8 94.25 64.1 170.05 26.6 304.1 14.25 348.35 9.75 398.95 2.4 425.4 0.6 454.45 -5.3 549.1 47.85 671.4 54.21484375 680.43515625 69.7 710.45 85.2388671875 740.5111328125 93.5 750.25 101.7537109375 760.0462890625 111.55 770.85
L 167.1 828
Q 179.2 839.05 192.6 849.15 194.9 849.45 195.85 850.8 213.4 863.8 232.65 873.55 240.05 879.8 322.2 903.85 404.35 927.9 419.25 928.8 568.1 937.55 681.05 872.45 794.05 807.4 826.75 775.5 859.45 743.6 883.95 680.45 899.35 629.4 915.8 556.45 918.05 542.65 928.7 474.6 939.35 406.6 920.3 357 915 332.7 908.35 309.45 903.8 294.7 896.95 279.6
L 860.25 206.35
Q 851.7 194.55 844.15 184.05
M 741.8 287.35
Q 773.7 331.55 797.35 373.6 788.4 417.5 789.55 434.45 790.7 448.05 790.7 461.6 790.7 462.75 790.7 465 790.7 474.05 790.7 484.25 788.4 512.5 781.7 540.75 779.4 552.05 776 562.25 770.35 578.05 763.5 593.9 751.15 648.6 719.5 672.7 687.8 696.8 681 703.6 642.55 737.5 598.45 756.75 569.05 769.2 537.35 775.95 520.95 792.5 446.15 794.4 371.3 796.3 255.8 702.45 237.6 693.65 210 667.75 182.45 641.9 174.4 592.75 167.55 579.2 163.1 564.55 163.1 563.35 161.95 562.25 158.55 550.95 156.25 539.6 149.5 503.45 148.35 484.25 147.25 474.05 137.8 463.65 128.4 453.25 126.55 435.9 124.75 418.6 152.95 401.65 145.25 306.65 241.1 233.15 316.05 112.4 464.05 127.1 612 141.85 668.3 198.35 724.6 254.75 741.8 287.35 Z"/>

<path fill="#BCBC96" stroke="none" d="
M 797.35 373.6
Q 773.7 331.55 741.8 287.35 724.6 254.75 668.3 198.35 612 141.85 464.05 127.1 316.05 112.4 241.1 233.15 145.25 306.65 152.95 401.65 124.75 418.6 126.55 435.9 128.4 453.25 137.8 463.65 147.25 474.05 148.35 484.25 149.5 503.45 156.25 539.6 158.55 550.95 161.95 562.25 163.1 563.35 163.1 564.55 167.55 579.2 174.4 592.75 182.45 641.9 210 667.75 237.6 693.65 255.8 702.45 371.3 796.3 446.15 794.4 520.95 792.5 537.35 775.95 569.05 769.2 598.45 756.75 642.55 737.5 681 703.6 687.8 696.8 719.5 672.7 751.15 648.6 763.5 593.9 770.35 578.05 776 562.25 779.4 552.05 781.7 540.75 788.4 512.5 790.7 484.25 790.7 474.05 790.7 465 790.7 462.75 790.7 461.6 790.7 448.05 789.55 434.45 788.4 417.5 797.35 373.6
M 703.1 449.9
Q 735.5 443.5 753.6 468.05 771.85 494.9 764 538.85
L 725.65 622.2
Q 698.7 660.1 664.5 667.6 633.7 675.1 602.25 623.75 555.3 575.5 635.1 508.3 638.55 502.05 642.45 494.85 670.25 459.8 703.1 449.9
M 390.7 174.7
Q 436.35 165.35 466.5 183.2 496.6 200.15 488.9 232.25 483.3 262.6 449.1 258.4 381 237.55 299.3 320.45 320.6 331.3 289.75 316.15 261.7 298.7 265.2 268.4 270.15 236.3 305.9 209.55
L 390.7 174.7
M 427.05 536.95
Q 443.75 552.8 444.95 589.75 447 624.65 430.9 646.35 402.35 664.8 367.2 669.25 295.35 640.1 386.45 533 410.1 518.95 427.05 536.95 Z"/>

<path fill="#9B9B7A" stroke="none" d="
M 444.95 589.75
Q 443.75 552.8 427.05 536.95 410.1 518.95 386.45 533 295.35 640.1 367.2 669.25 402.35 664.8 430.9 646.35 447 624.65 444.95 589.75
M 466.5 183.2
Q 436.35 165.35 390.7 174.7
L 305.9 209.55
Q 270.15 236.3 265.2 268.4 261.7 298.7 289.75 316.15 320.6 331.3 299.3 320.45 381 237.55 449.1 258.4 483.3 262.6 488.9 232.25 496.6 200.15 466.5 183.2
M 753.6 468.05
Q 735.5 443.5 703.1 449.9 670.25 459.8 642.45 494.85 638.55 502.05 635.1 508.3 555.3 575.5 602.25 623.75 633.7 675.1 664.5 667.6 698.7 660.1 725.65 622.2
L 764 538.85
Q 771.85 494.9 753.6 468.05 Z"/>
</g>

<path id="Duplicate_Items_Folder_head_copy_7_Layer1_0_1_STROKES" stroke="#000000" stroke-width="5" stroke-linejoin="round" stroke-linecap="round" fill="none" d="
M 20.55 -131.7
L 22.35 -147.3 9.85 -162.8
M -1.95 -89.25
L 21.8 -84.65 41.15 -99.2 65.1 -100.9
M 29.35 -160.25
Q 65.45 -151.35 78.85 -113.1 79.2 -112.4 79.35 -111.7 78.85 -62.25 70.55 -27.8 51.2 52.2 -10.75 50.95 -12.7 50.85 -14.65 51 -16.75 50.4 -19.05 50.3 -81 47.65 -100.4 -33.55 -108.65 -68.5 -109.2 -118 -109 -118.65 -108.65 -119.35 -95.25 -156.8 -59.2 -163.4 -48.25 -165.7 -37.7 -166.6
L -32.75 -140.75
M 7.9 -164.85
L 2.95 -139.3
M 70.55 -27.8
L 56.85 -44.8 63.7 -50.2 64.4 -68.35 48.05 -77.65 39.4 -70.35 14.25 -71.15 7.35 -62.05
M 16 -45.75
L 35 -26.65
M 55.6 -13.5
Q 61.1728515625 -27.775 43.1 -42.05
L 48.75 -61.95
M -15.1 -135.25
Q -15.15 -167.3 -14.65 -166.95 -13.75 -167.1 -12.7 -166.9
M -50.4 -134.25
L -52.15 -150 -39.65 -164.75
M -37.15 -63.8
L -44.05 -73.3 -69.2 -74.1 -77.85 -82 -94.2 -73.7 -93.5 -55.55 -86.65 -49.65 -100.4 -33.55
M -38.55 -47.75
L -70.8 -31.2
M -27.85 -90.4
L -51.6 -87.3 -70.95 -103.05 -94.9 -106.3
M -85.4 -18.35
Q -87.004296875 -42.0431640625 -72.9 -46.1
L -78.55 -66.3
M 2.5 29.9
Q -8.45 41.7 -21.1 36.55"/>

<path id="Duplicate_Items_Folder_brain_0_Layer1_0_1_STROKES" stroke="#000000" stroke-width="3" stroke-linejoin="round" stroke-linecap="round" fill="none" d="
M 30.9 -33.9
Q 26.411328125 -22.0224609375 29.95 -11.55
M 32.95 -4.475
Q 38.7333984375 -8.1189453125 38.85 -17.9 38.85 -18.09296875 38.85 -18.3
M 40.15 -39.4
L 35.8 -38.85
M 7.8 -48.15
Q 11.1962890625 -46.9630859375 11.55 -45.1 16.35625 -50.16796875 28.05 -47.75
M 25.2 -4.15
Q 26.0134765625 -3.132421875 26.7 -2.125 30.38515625 -2.869921875 32.95 -4.475
M 30.9 -33.9
Q 21.163671875 -48.1505859375 8.15 -36.95 4.584765625 -34.01328125 3.8 -14.95
M 19.15 -6.85
Q 16.59375 -18.6658203125 20.1 -28.6
M 53.8 -24.65
Q 47.4189453125 -21.3365234375 46.3 -12.65
L 46.275 -12.375
M 41.3 0.6
Q 44.525 0.2986328125 47.75 -3
L 48.5 -6.8
M 46.3 -12.65
Q 47.019921875 -19.528125 45.575 -24.15
M -51.325 -24.4
Q -57.031640625 -39.735546875 -40.6 -39.4 -41.0111328125 -49.2265625 -33.65 -55.25 -22.6251953125 -59.7322265625 -13.05 -54.25 2.893359375 -66.0568359375 18.05 -52.1 33.9564453125 -55.0728515625 40.2 -39.65 53.940234375 -38.790625 54.3 -25.15 65.61640625 -6.01796875 48.35 1 50.537109375 14.840234375 33.7 19.4 28.65 23.90546875 23.6 19.8 23.5146484375 19.8818359375 23.425 19.975 8.272265625 34.367578125 -7.575 23.225 -7.7400390625 23.1150390625 -7.9 23 -25.3421875 27.440234375 -36.45 10.7 -36.60234375 10.7365234375 -36.75 10.775 -36.8693359375 10.80234375 -37 10.825 -50.5974609375 13.850390625 -51.3 2 -51.378515625 1.9076171875 -51.45 1.825 -60.3833984375 -8.9001953125 -51.3 -24.35 -51.3103515625 -24.377734375 -51.325 -24.4
L -44.55 -31.05
M 45.575 -24.15
Q 42.66484375 -33.438671875 31.05 -33.7
M 15.9 13.85
Q 18.35 10.05 22.15 11.4
M 19.3 11.95
Q 18.9185546875 15.9625 23.425 19.975
M 25 -4.55
Q 9.2736328125 -10.3119140625 1.15 0.025 -0.3220703125 1.9234375 -1.55 4.35
L -1.525 4.5
Q -1.435546875 4.6447265625 -1.35 4.8 1.7951171875 10.0697265625 0.75 15.35
M 30.1 11.75
Q 24.6384765625 4.817578125 26.7 -2.125
M -20.1 -43.6
Q -12.572265625 -43.6994140625 -8.75 -49.65
L -12.7 -53.8
M -38.1 -34.5
L -33.95 -35.45
Q -32.1298828125 -37.844140625 -33.55 -40.75
M -13 -23.375
Q -12.054296875 -28.126953125 -13.4 -33.7 -30.79609375 -44.6798828125 -32.3 -23.8 -32.451171875 -23.8029296875 -32.6 -23.8
L -32.55 -18.15 -32.3 -16.3 -32.35 -16.3
M -31.775 -10.7
Q -24.7720703125 -4.6740234375 -24.275 1.35 -12.6044921875 -2.19921875 -1.525 4.5
M -32.35 -16.3
L -36.4 -17.05
M -16.3 -16.1
Q -13.7802734375 -19.4578125 -13 -23.375
M -8.375 -18.55
Q -8.1923828125 -26.7486328125 -3.8 -34.3
M 1.15 0.025
Q -4.4548828125 -2.6625 -8.2 -14.2 -8.4376953125 -16.3953125 -8.375 -18.55
M -22.95 -29.75
Q -26.4482421875 -23.6984375 -25.2 -15.35 -23.9900390625 -9.5892578125 -15.95 -5.65
M -32.6 -23.8
Q -45.96171875 -23.916015625 -40.55 -11.15 -35.2060546875 -8.781640625 -39.05 0.35
M -13.3 13.65
Q -12.7943359375 18.4375 -7.575 23.225
M -24.275 1.35
Q -24.043359375 4.2046875 -25.2 7.05
M -36.75 10.775
Q -32.53671875 9.2123046875 -32.4 5.7
M -51.45 1.825
Q -50.5564453125 -3.71640625 -46.1 -4.55
M 8.15 -36.95
Q -6.79609375 -49.6931640625 -13.4 -33.7"/>
</defs>

<g transform="matrix( 0.1408233642578125, 0, 0, 0.1408233642578125, 103.25,44.15) ">
<g transform="matrix( 1, 0, 0, 1, 0,0) ">
<use xlink:href="#LOGO_0_Layer1_0_FILL"/>
</g>

<g transform="matrix( 1, 0, 0, 1, 0,0) ">
<use xlink:href="#LOGO_0_Layer0_0_FILL"/>
</g>

<g transform="matrix( 7.0765838623046875, -2.2245941162109375, 1.944091796875, 7.152923583984375, 1239.15,1619.95) ">
<g transform="matrix( 1, 0, 0, 1, 0,0) ">
<use xlink:href="#Duplicate_Items_Folder_head_copy_7_Layer2_0_FILL"/>
</g>

<g transform="matrix( 1, 0, 0, 1, 0,0) ">
<use xlink:href="#Duplicate_Items_Folder_head_copy_7_Layer1_0_FILL"/>

<use xlink:href="#Duplicate_Items_Folder_head_copy_7_Layer1_0_1_STROKES"/>
</g>

<g transform="matrix( 1.088836669921875, 0.0430908203125, -0.039886474609375, 1.0074615478515625, -18.6,-139.3) ">
<g transform="matrix( 1, 0, 0, 1, 0,0) ">
<use xlink:href="#Duplicate_Items_Folder_brain_0_Layer1_0_FILL"/>

<use xlink:href="#Duplicate_Items_Folder_brain_0_Layer1_0_1_STROKES"/>
</g>

<g transform="matrix( 1, 0, 0, 1, 0,0) ">
<use xlink:href="#Duplicate_Items_Folder_brain_0_Layer0_0_FILL"/>
</g>
</g>
</g>

<g transform="matrix( 0.1898651123046875, -0.3685302734375, 0.3629150390625, 0.186981201171875, 204.4,2412.15) ">
<g transform="matrix( 1, 0, 0, 1, 0,0) ">
<use xlink:href="#Duplicate_Items_Folder_world_copy_2_0_Layer0_0_FILL"/>
</g>
</g>

<g transform="matrix( -0.2762451171875, -0.32415771484375, 0.319244384765625, -0.27203369140625, 759.6,2625.05) ">
<g transform="matrix( 1, 0, 0, 1, 0,0) ">
<use xlink:href="#Duplicate_Items_Folder_world_copy_0_Layer0_0_FILL"/>
</g>
</g>
</g>
</svg>
